<?xml version="1.0" standalone="no"?>
<!DOCTYPE svg PUBLIC "-//W3C//DTD SVG 1.1//EN" "http://www.w3.org/Graphics/SVG/1.1/DTD/svg11.dtd" >
<svg xmlns="http://www.w3.org/2000/svg" xmlns:xlink="http://www.w3.org/1999/xlink" version="1.1">
<metadata></metadata>
<defs>
<font id="agataregular" horiz-adv-x="741" >
<font-face units-per-em="2048" ascent="1638" descent="-410" />
<missing-glyph horiz-adv-x="745" />
<glyph horiz-adv-x="0" />
<glyph unicode="&#xd;" horiz-adv-x="745" />
<glyph unicode=" "  horiz-adv-x="745" />
<glyph unicode="&#x09;" horiz-adv-x="745" />
<glyph unicode="&#xa0;" horiz-adv-x="745" />
<glyph unicode="!" horiz-adv-x="489" d="M-10 68q0 57 123 94q20 6 37 6q40 0 34 -41q-4 -29 -34 -88q-27 -49 -70 -49q-31 0 -60.5 23.5t-29.5 54.5zM31 600q0 23 30 96q14 29 41 95q18 68 74 264q74 256 113 340q16 33 61 174q29 86 62 80q66 -10 65 -88q0 -29 -14 -58q-43 -88 -86 -174q-74 -156 -127 -317 q-68 -207 -76 -271q0 -12 5 -33.5t5 -33.5q0 -51 -18 -90q-27 -51 -72 -41q-63 12 -63 57z" />
<glyph unicode="&#x22;" horiz-adv-x="411" d="M-137 1022q0 18 39 61q78 86 96 150q2 10 20 166q14 121 70 133q35 8 47 -13.5t8 -62.5q0 -10 -47 -231q-16 -82 -59 -150q-57 -90 -127 -90q-47 0 -47 37zM74 1001q0 27 76 66q39 20 92 238q2 12 0 127q-2 80 45 92q14 4 26 4q31 0 39.5 -28.5t12.5 -57.5q4 -23 -11 -51 q-23 -43 -30 -68q-20 -102 -86 -297q-37 -76 -97 -76q-23 0 -45 15.5t-22 35.5z" />
<glyph unicode="#" horiz-adv-x="1273" d="M-2 688q0 39 88 86q27 14 178 66q139 47 172 71q41 31 53 95q10 47 15 163q2 45 -10.5 103.5t-12.5 73.5q0 31 31 51q27 14 61 14q25 0 29 -20q8 -31 10 -33q35 -33 4 -90q-10 -20 -10 -92t10 -101q4 -12 21 -12q25 0 78 24q66 31 67 31q37 10 60 82q2 8 2 19 q0 12 -4 46.5t-4 53.5q0 74 51 74q31 0 51 -66l29 -86q8 -12 20 -12q8 0 96 65q18 14 39 15q27 0 44.5 -26t17.5 -54q0 -19 -6 -33q-16 -35 -101 -59q-57 -12 -116 -27q-39 -10 -39 -92q0 -47 11 -76t30 -29q10 0 108 43q23 10 37 11q35 0 35 -39q0 -59 -43 -86 q-29 -18 -84 -33q-70 -16 -82 -23q-29 -12 -43 -48t-27 -72q-2 -4 -28 -131q-23 -96 -54 -111q-10 -6 -20 -6q-39 0 -39 63q0 16 4 27q41 98 41 151q0 35 -16 35q-35 0 -158 -88q-98 -70 -166 -129q-37 -39 -72 -76q-33 -29 -100 -22q-53 4 -53 41q0 27 23.5 59.5t47.5 46.5 q37 23 96.5 76t75 82t21.5 78t-4 76q-4 8 -17 8q-59 0 -190 -109q-92 -76 -205 -75q-53 0 -53 26zM545 723q0 -41 12 -41q25 0 170 82q100 57 100 96q0 8 8.5 56.5t8.5 72.5q0 43 -23 43q-4 0 -108.5 -31.5t-121 -54t-31.5 -97.5t-15 -126z" />
<glyph unicode="$" horiz-adv-x="1200" d="M0 117q0 80 49 65q45 -18 90 -37q57 -23 84 -16q16 0 49 4q12 2 21 23q16 39 76 270q61 244 53 270q-10 35 -12 39q-10 14 -35 19q-31 4 -66 43t-35 82q0 8 2 18q16 68 89 199q86 162 172 243q117 113 118 115q23 27 27 64q4 51 27 106q27 68 55 68q27 0 45 -52.5 t51 -52.5q84 0 82 0q39 4 47 25q10 39 23 78q23 55 65 49q35 -4 35 -51q0 -29 -14 -76q-8 -33 2 -35q26 0 71 -23q16 -18 17 -32q0 -18 -27 -23q-18 -2 -80 0q-12 0 -37 -35q-39 -92 -102 -260q-127 -381 -127 -454q0 -10 2 -17q31 -39 62 -76q53 -72 53 -147q0 -39 -12 -80 q-31 -100 -148 -217t-123 -150q-16 -160 -33 -319q-27 -260 -55.5 -281.5t-73.5 -21.5q-57 0 -57 45q0 12 4 27q12 41 55 122q35 70 37 105q2 14 21 123q16 98 16 137q0 33 -10 37q-39 12 -90 12q-90 0 -121 -51q-35 -61 -53 -195q-8 -106 -17 -215q-12 -100 -77 -92 q-61 8 -62 51q0 18 12 56q14 49 19 65q53 268 53 295q0 25 -6 31t-100 12q-86 6 -98.5 40t-12.5 71zM383 887q0 -45 37 -53q31 -6 69 90q33 76 58 182q6 49 14 96q-37 -18 -104 -129q-74 -119 -74 -186zM397 225q0 -43 14.5 -53t63.5 -10q137 0 148 57q23 92 43 187 q39 162 39 221q-1 22 -7 30q-18 29 -73 29q-72 0 -117 -37q-33 -25 -72 -178.5t-39 -245.5zM541 793q-4 -35 67 -35q92 0 129 30q23 20 106 318.5t85 374.5q0 23 -21 22q-31 0 -93 -44t-95 -85q-37 -47 -109 -295q-66 -229 -69 -286zM723 340q0 -41 18 -31q29 14 62 94 t33 136q0 45 -29 45q-6 0 -12 -2q-16 -6 -44 -98.5t-28 -143.5z" />
<glyph unicode="%" horiz-adv-x="1308" d="M2 1282q16 182 119 277q84 80 205 79q84 0 151.5 -39.5t67.5 -113.5q0 -86 -111 -262q-41 -63 -122 -109.5t-158 -46.5q-172 0 -152 215zM53 68q0 27 43 96q59 98 119 194q117 195 356 529q225 311 310 403q2 2 168 207q106 129 137 129q6 0 10 -6q29 -41 29 -53 q0 -29 -62 -113q-250 -295 -616 -766q-39 -59 -141 -268q-106 -223 -158 -305q-86 -137 -135 -111q-59 33 -60 64zM150 1352q-12 -61 10 -104.5t65 -43.5q72 0 137 109q55 90 56 147q0 41 -25.5 54.5t-54.5 13.5q-59 0 -115.5 -48t-72.5 -128zM659 236q0 141 11 182 q31 121 153 213q135 100 228 100q86 0 131 -82q14 -29 14 -80q0 -106 -53 -233q-59 -137 -139 -189q-63 -41 -144 -41q-80 0 -140.5 38t-60.5 92zM819 391q-10 -143 58 -143q49 0 137 88q68 70 67 180q1 70 -28 84q-18 8 -39 8q-63 0 -126 -67.5t-69 -149.5z" />
<glyph unicode="&#x26;" horiz-adv-x="1462" d="M0 244q0 90 74 192q18 23 43.5 54.5t83.5 95.5q68 76 63 92q-12 29 -39 104q-25 88 8 115q45 43 91 84q66 61 91 71.5t77 34.5q45 20 77 0q49 -31 49 -75q0 -25 -52 -33t-103 -18q-70 -14 -86 -35q-29 -37 -29 -95q0 -57 39 -61q16 -2 55 6q23 6 66 21q78 20 86 10 q14 -16 33 -82q2 -2 14 -49q6 -14 12 -33q4 -6 78 -88t115 -137q51 -68 168 -142q104 -66 186 -90q193 -57 191 -100q0 -51 -86 -51q-129 0 -279 102q-96 66 -219 174q-143 125 -180 191q-14 23 -64 145q-31 78 -65 76q-59 -2 -209 -154q-168 -172 -172 -307 q-4 -145 131 -145q90 0 151 41q18 12 37 35l17 16q49 49 88 24q39 -27 39 -79q0 -66 -43 -82q-170 -66 -283 -66q-129 0 -191.5 77t-62.5 161z" />
<glyph unicode="'" horiz-adv-x="276" d="M0 1169q0 96 49 189q25 53 82 151q18 25 37 25q18 0 61 -43q20 -20 -16 -74q-25 -33 -76 -102q-37 -53 -37 -141q0 -61 15 -84q12 -14 28 -43q8 -31 -28 -62q-8 -6 -19 -6q-47 0 -73 74q-23 57 -23 116z" />
<glyph unicode="(" horiz-adv-x="696" d="M0 639q0 219 178 524q158 274 350 445q35 31 74 30q61 0 62 -57q0 -12 -4.5 -26.5t-84.5 -63.5q-100 -59 -165 -133q-125 -137 -217 -348q-98 -225 -99 -400q0 -143 64 -264q45 -88 123 -162q43 -37 84 -73q18 -20 18 -43q0 -51 -59 -68q-29 -8 -109 92q-84 111 -143 246 q-72 164 -72 301z" />
<glyph unicode=")" horiz-adv-x="696" d="M0 59q0 12 4 26.5t84 61.5q100 59 166 134q125 137 217 348q98 223 98 399q0 143 -63 264q-45 88 -123 162q-43 37 -84 74q-16 18 -16 43q0 51 59 67q29 8 107 -94q84 -109 143 -244q72 -164 72 -301q0 -217 -177 -524q-160 -274 -350 -444q-35 -31 -74 -31q-63 0 -63 59 z" />
<glyph unicode="*" horiz-adv-x="851" d="M0 1096q-2 35 68 39h94q33 2 53 10q70 29 125 55l14 4l31 72q-53 82 -92 117q-25 23 -88 57q-41 23 -41 41q0 20 37 55q12 12 28 13q37 0 95 -80q49 -78 98 -154l10 10q6 25 45 230q14 80 58 73q31 -4 30 -61q0 -76 -55 -248l22 -12q145 119 185 119q39 0 39 -47 q0 -29 -60 -56q-109 -51 -116 -55q-14 -8 -56 -76q150 -154 150 -213q0 -23 -17 -37q-8 -4 -14 -4q-27 0 -68 62q-47 68 -92 137q-6 0 -20 -5t-21 -9q-125 -319 -198 -320q-14 0 -26.5 15.5t-12.5 31.5q0 23 49 80q57 66 74 107l18 45q-6 10 -20 18q-207 -96 -258 -96 q-63 0 -68 82z" />
<glyph unicode="+" horiz-adv-x="948" d="M2 672q-14 55 148 108l262 82q63 27 102 35q119 360 180 346q20 -6 21 -35q0 -51 -117 -301q70 -4 96 -4q154 4 156 -35q4 -59 -72 -59q-14 0 -64 3t-85 3q-39 0 -74 -4q-4 -12 -10 -35q-29 -117 -60 -233q-39 -129 -79 -121q-25 6 -25 37q0 29 27 98q33 88 36 105 q10 37 39 135q-35 -6 -61 -17q-90 -31 -229 -104q-106 -55 -140 -55q-39 0 -51 51z" />
<glyph unicode="," horiz-adv-x="215" d="M0 -346q6 12 25 37q10 16 30 55q39 88 39 186q0 55 -14 93q-10 23 -33 63q-4 6 -8 18q-14 43 41 80q10 8 20 9q49 0 76 -134q11 -87 25 -200q6 -53 -58 -185q-51 -104 -98 -104q-16 0 -31 14q-33 33 -14 68z" />
<glyph unicode="-" horiz-adv-x="770" d="M0 643q0 49 59 62q49 10 246 10q10 0 172 4q111 4 147 -2.5t42 -61.5q6 -45 -117 -45q-35 0 -119 4q-76 6 -106 4q-74 -16 -218 -34q-45 0 -75.5 17t-30.5 42z" />
<glyph unicode="." horiz-adv-x="245" d="M2 96q-8 33 20.5 54.5t69.5 21.5q88 0 88 -57q0 -37 -38 -75t-72 -38q-10 0 -19 4q-33 18 -39 42t-10 48z" />
<glyph unicode="/" horiz-adv-x="1175" d="M0 70q0 84 115 290q59 104 164 267q129 203 137 215q164 268 315 473q238 317 336 317q14 0 25 -6q42 -26 32 -49q-8 -18 -90 -98q-276 -270 -524 -643q-242 -362 -385 -779q-18 -53 -49 -53q-76 0 -76 66z" />
<glyph unicode="0" horiz-adv-x="1179" d="M0 430q0 211 172 469q135 203 324 367q170 147 206 125q20 -12 21 -31q0 -35 -141 -170q-88 -84 -176 -166q-301 -326 -302 -575q0 -172 148 -293q43 -35 104 -35q129 0 296 138t286 347q80 137 80 283q0 170 -113 350q-80 129 -155 195q-41 35 -84 69q-55 53 -56 84 q0 47 43 47q47 0 123 -63q84 -68 158 -176q176 -258 176 -539q0 -80 -16 -160q-49 -240 -297 -465t-447 -225q-63 0 -110 29q-240 150 -240 395z" />
<glyph unicode="1" horiz-adv-x="372" d="M31 178q4 66 28 178q23 94 43 191q109 537 109 782q0 25 -4 66q-6 51 -8 65q-4 49 0 78q8 74 69 84q23 4 23 -6q2 -37 2 -41q6 -27 10 -68q2 -27 8 -82q8 -51 -2 -202q-12 -186 -45 -359q-31 -143 -61 -284q-39 -190 -43 -283q-2 -41 27.5 -116t29.5 -107q0 -53 -86 -58 q-61 -2 -83.5 38t-16.5 124z" />
<glyph unicode="2" horiz-adv-x="1581" d="M-33 72q-14 63 203 372q205 295 346 433q350 344 350 509q0 59 -48 93t-93 34q-51 0 -129 -49q-27 -16 -78 -39q-37 -6 -72 27q-12 12 -12 29q0 61 152 114q68 23 131 23q131 0 196 -94q53 -78 54 -164q0 -229 -422 -651q-281 -281 -332 -408q-33 -82 -33 -113 q0 -23 15.5 -28.5t70.5 -7.5q66 12 178 20q176 -8 267 -29q84 -20 282 -118q102 -51 123 -62q92 -43 123 -45q23 -4 78 2q74 10 80 10q104 7 104 -61q0 -43 -71 -64q-102 -29 -236 15q-61 18 -289 127q-182 86 -284 86q-35 0 -172.5 -6.5t-217.5 -6.5q-252 0 -264 52z" />
<glyph unicode="3" horiz-adv-x="854" d="M0 70q0 37 57.5 71.5t128.5 40.5q61 4 218 192.5t157 270.5q0 100 -59 146q-18 14 -109 49q-61 20 -63 65q-2 29 141 233.5t143 280.5q0 29 -18 45q-96 80 -190 80q-76 0 -174.5 -57t-122.5 -57q-29 0 -48 30q-10 16 -10 35q0 61 116 105.5t269 35.5q141 -8 238.5 -73.5 t97.5 -163.5q0 -63 -45 -131q-53 -82 -154 -199q-68 -80 -67 -106q0 -12 10 -21q51 -43 100 -84q68 -68 70 -149q2 -63 -94 -236q-102 -184 -223 -315q-147 -158 -258 -158q-53 0 -97 39q-14 14 -14 31z" />
<glyph unicode="4" horiz-adv-x="962" d="M0 434q0 174 96 479q88 276 203 502.5t168 216.5q45 -16 45 -59q0 -47 -88 -221q-115 -225 -117 -230q-70 -168 -137 -385q-55 -176 -59 -213q-6 -45 33.5 -79.5t97.5 -41.5q49 -6 262 299q186 266 246 383q33 66 69 74q14 2 33 -4q35 -12 47 -26.5t12 -51.5 q0 -125 -82 -293q-33 -68 -75 -303q-27 -170 -56 -338q-18 -102 -24 -125q-10 -33 -43 -32q-86 0 -86 71q0 70 43 160q33 68 78 227q55 188 55 281q0 45 -14 61q-8 10 -56 -51q-59 -84 -67 -92q-102 -102 -269 -401q-8 -12 -24 -17q-47 -8 -223 47q-68 23 -68 162z" />
<glyph unicode="5" horiz-adv-x="1357" d="M0 907q0 25 45 103q25 41 37 120q16 100 24 127q20 66 64 201q39 115 66 129q76 -8 75 -53q0 -35 -39 -119q-53 -106 -57 -121q-41 -119 -41 -229q0 -25 51 -31q98 -10 199 -20q106 -19 184 -78q41 -31 41 -135q0 -178 -65 -283q-139 -223 -305 -387q-121 -119 -183 -119 q-41 0 -55 54q-6 25 31 65q37 33 112 90q207 160 297 309q68 115 68 203q0 82 -57.5 135.5t-139.5 53.5q-51 0 -125 -15q-121 -23 -125 -22q-55 -8 -79 -2q-23 6 -23 24zM434 1405q-8 16 12 47q2 8 121 2q166 -10 224 -6q94 6 268 80q2 0 115 53q102 47 106 47q16 0 18 -43 q2 -57 -15 -86t-153 -69q-49 -14 -188 -50q-111 -27 -223 -26q-63 0 -139 6q-121 10 -146 45z" />
<glyph unicode="6" horiz-adv-x="1142" d="M0 106q-8 47 98 154q16 8 41 19q29 23 21 88q-2 14 -2 34q0 252 225 670q117 217 373 404q217 160 309 159q10 0 14 -4q12 -10 -16 -39q-55 -45 -100 -78q-215 -160 -347.5 -306t-209.5 -318q-47 -104 -121 -354q-8 -25 -9 -43q0 -29 25 -29q41 0 164 104 q166 143 317 144q72 0 119 -45t47 -117q0 -96 -76 -223q-70 -113 -165 -199q-88 -78 -209 -78q-113 0 -234 66q-31 16 -51 16q-25 0 -42 -17.5t-33.5 -40t-41.5 -44.5q-45 -31 -53 -17q-2 4 -8 15q-2 4 -8.5 21.5t-26.5 57.5zM307 236q4 -59 111 -60q123 0 227 49 q57 27 111 125q49 92 49 160q0 51 -84 41q-92 -10 -174 -70q-55 -37 -160 -114q-84 -72 -80 -131z" />
<glyph unicode="7" horiz-adv-x="702" d="M0 59q0 119 270.5 676t270.5 676q0 35 -17 49q-70 63 -147 64q-49 0 -124 -31t-95 -31q-45 0 -64 68q-12 47 53.5 77.5t165.5 30.5q123 0 217 -43q109 -49 136 -139q4 -12 4 -33q0 -94 -70 -284q-74 -201 -184 -404q-92 -168 -252 -534q-92 -215 -135 -199q-29 10 -29 57 z" />
<glyph unicode="8" horiz-adv-x="739" d="M0 180q0 74 43 166q20 45 72 107q68 84 78 98q86 123 96 211q6 45 2 112q-8 88 -17 177q-10 106 -2 178q37 299 310 397q51 18 77 -106q19 -84 19 -174q0 -199 -62 -299q-23 -35 -122 -175q-74 -102 -88 -161q-18 -82 -3 -238q20 -197 21 -248q-4 -215 -184 -215 q-47 0 -109 13q-131 27 -131 157zM135 219q0 -76 55 -82q101 -10 144 185q10 47 10 90q0 111 -61 114q-63 -10 -125 -190q-23 -68 -23 -117zM356 1004q0 -98 50 -103q53 -6 98 82q39 73 59 186q16 88 17 162q0 123 -48 125q-76 4 -147 -270q-29 -106 -29 -182z" />
<glyph unicode="9" horiz-adv-x="950" d="M-14 66q0 59 254 186q285 143 315 178q84 94 145 229q78 172 72 326q-2 53 -2 115v100q-2 86 -25 86q-6 0 -14 -4q-76 -37 -153 -74q-141 -61 -230 -61q-90 0 -125 59q-14 23 -14 49q0 111 184 250q174 133 287 133q43 0 70.5 -43t56.5 -47q86 -14 86 -112q0 -17 -4 -33 q-6 -201 -12 -404q-29 -379 -156 -544q-78 -100 -201 -172q-102 -57 -207 -115q-16 -10 -145 -113q-72 -55 -109 -55q-35 0 -63 41q-10 12 -10 25zM358 1321q0 -61 68 -61q88 0 293 129q51 33 51 67q0 29 -37 66q-16 16 -39 16q-31 0 -84 -28.5t-104 -57.5 q-147 -70 -148 -131z" />
<glyph unicode=":" horiz-adv-x="413" d="M23 43q0 51 48 105.5t97 54.5q70 0 70 -70q-1 -19 -7 -37q-14 -35 -61 -63.5t-92 -28.5q-55 0 -55 39zM35 555q0 41 60.5 102.5t119.5 61.5q61 0 61 -72q0 -27 -12 -78q-10 -37 -71 -26q-14 2 -55.5 -6.5t-59.5 -8.5q-43 0 -43 27z" />
<glyph unicode=";" horiz-adv-x="444" d="M-182 -365q-8 25 65 62q96 49 113 65q31 33 65 164q33 125 23 150q-2 6 -2 16q0 29 22.5 53.5t65.5 18.5q53 -6 53 -86q0 -63 -49 -129q-23 -31 -42 -98.5t-81 -157.5q-88 -127 -153 -127q-55 0 -80 69zM63 551q0 51 43 104q51 70 134 60q45 -6 45 -58q0 -39 -23 -92 q-29 -72 -94 -71q-66 0 -100 41q-4 4 -5 16z" />
<glyph unicode="&#x3c;" horiz-adv-x="778" d="M-6 825q0 20 10 52q6 20 44 39.5t75 39t143 103.5q143 113 164 127q111 80 145 80q33 0 54 -39q8 -16 8 -29q0 -27 -62 -53q-92 -39 -131 -70q-82 -59 -161.5 -120.5t-92.5 -102.5q-20 -70 254 -178q98 -39 162 -105q55 -59 56 -106q-1 -41 -44 -41q-20 0 -49 31 q-59 63 -67 71q-55 33 -148 90q-66 41 -164 76q-117 39 -137 49q-59 29 -59 86z" />
<glyph unicode="=" horiz-adv-x="837" d="M0 668q0 37 72 55q10 2 16 2q12 0 32.5 -18.5t55.5 -18.5q16 0 37 4q59 4 252 37q57 12 98 12q82 0 82 -41q0 -47 -67.5 -47t-264.5 -24q-129 -16 -207 -19q-49 -2 -55 0q-25 4 -43 33q-8 12 -8 25zM137 905q-6 12 2 36t26.5 35t47.5 11q20 0 76.5 -9t89.5 -9q27 0 49 4 q221 45 254 67q14 10 43 2q31 -9 29 -34q-2 -33 -9 -39q-14 -12 -77 -23q-53 -8 -107.5 -24.5t-77.5 -20.5q-109 -12 -270 -43q-12 -4 -23 -4q-31 0 -53 51z" />
<glyph unicode="&#x3e;" horiz-adv-x="800" d="M8 1214q0 43 43 43q23 0 53 -30q63 -70 70 -76q20 -18 76 -49q70 -37 78 -43q70 -45 172 -80q123 -43 143 -53q61 -31 62 -90q-1 -23 -11 -54q-8 -20 -47 -40.5l-78 -41t-149 -106.5q-164 -127 -172 -133q-115 -84 -152 -84q-35 0 -55 41q-8 16 -8 31q0 29 63 57 q96 41 137 72q96 70 191 139q102 78 106 100q12 57 -297 178q-102 41 -167 109q-57 61 -58 110z" />
<glyph unicode="?" horiz-adv-x="817" d="M0 500q0 18 6 30q18 33 135 142q125 117 193 155q78 45 164 146q98 119 98 198q0 37 -23 62q-59 63 -151 63q-96 0 -143 -39q-12 -10 -39 -36q-86 -72 -138 -72q-51 0 -51 59q0 74 166 152q147 72 199 65q180 -20 254 -100q55 -64 53 -158q-4 -145 -139 -284 q-68 -70 -209 -172q-82 -59 -151.5 -124t-67.5 -83q8 -63 8 -64q4 -41 -37 -49q-12 -2 -23 -2q-49 0 -79 39q-25 33 -25 72zM29 78q0 70 94 88q74 14 94 -25q4 -10 14 -80q10 -76 -73 -75q-41 0 -78 20q-51 29 -51 72z" />
<glyph unicode="@" horiz-adv-x="1513" d="M0 166q0 289 332 637q313 328 618 327q164 0 303 -92q111 -76 154 -164q37 -74 37 -239q0 -225 -68 -389q-84 -199 -235 -199q-94 0 -150 55q-8 6 -67 97q-35 49 -80 43q-14 -2 -148.5 -84t-222.5 -82q-100 0 -168 92q-29 39 -29 92q0 96 84 217q74 104 136 135 q135 68 282 68q51 0 70 -16q29 -31 56.5 -61t62.5 -34q106 -16 106 -41q0 -4 -39 -65.5t-39 -110.5t39 -84q68 -61 115 -61q45 0 88 61q35 49 72 170q43 137 43 238q0 86 -33 127q-88 109 -137 145q-88 72 -193 72q-231 0 -614 -346q-131 -117 -228 -359q-35 -86 -34 -165 q0 -139 96 -240q82 -84 147 -78q72 6 199 57q121 49 156 50q41 0 53 -39q18 -57 -115 -107q-125 -45 -268 -45q-119 0 -174 37q-207 139 -207 381zM412 238q0 -45 59 -39q82 10 238.5 119.5t156.5 170.5q0 29 -39 46q-28 12 -61 12q-131 0 -242.5 -116t-111.5 -193z" />
<glyph unicode="A" horiz-adv-x="1255" d="M0 670q0 46 82 69q41 12 201 37q25 4 71 10q109 389 164 617q2 10 6 98q2 43 49 43h4q71 0 89 -69q20 -86 41 -170q131 -350 170 -488q51 -2 108 -2q37 0 93.5 14.5t72.5 14.5q41 -1 41 -56q0 -61 -135 -61q-51 0 -160 10q16 -119 64 -346q16 -63 65 -192 q39 -100 39 -136q0 -51 -59 -53h-2q-52 0 -80 123q-25 145 -50 291q-2 16 -81 293l-9 28q-87 6 -133 6q-18 0 -30 -1q-90 -8 -175 -25l-14 -59q-78 -317 -121 -459q-94 -299 -164 -301q-34 0 -34 52v3q0 82 82 324q125 381 129 397l4 14q-66 -18 -178 -59q-78 -29 -105 -29 q-45 0 -45 62zM467 805q100 20 149 22q11 0 150 -4q-80 313 -82 328q-47 162 -78 162q-27 0 -69 -180z" />
<glyph unicode="B" horiz-adv-x="1048" d="M-57 -123q0 33 21.5 53.5t45.5 14.5q22 -10 57 -10q61 0 164 30q188 55 396 195q215 143 235 243q6 27 6 52q0 150 -145 221q-178 88 -358 88q-66 0 -74 -23q-12 -33 -12 -161q0 -33 2 -103v-102q0 -154 -21 -154q-10 0 -41 -4q-25 -2 -37 0q-18 2 -32 16q-6 6 -7 29 q0 39 35 238.5t35 275.5q0 29 -4 47q-16 80 -35 160q-22 110 -22 174v6q0 113 63 113h2q55 -2 55 -149v-21q-4 -95 -4 -144.5t4 -54.5q10 -14 72 -14q131 0 242 57q139 74 139 206v7q-2 72 -50 111t-163 61q-33 6 -145 6q-67 0 -162 -2q-27 -1 -50 -1q-149 0 -149 34 q-2 68 98 68q16 0 119 -8q254 -20 355 -50q260 -76 260 -253v-11q-4 -74 -58 -135q-23 -25 -98 -84q-49 -38 -49 -61q0 -30 80 -64q104 -47 155 -90q131 -115 131 -260q0 -41 -14 -78q-66 -158 -457 -362q-367 -190 -516 -191q-25 0 -32 8q-37 33 -37 76z" />
<glyph unicode="C" horiz-adv-x="1296" d="M0 602q0 231 121 459q102 195 260 330q147 127 252 127q63 0 84 -56q2 -20 -70 -43q-98 -31 -155 -73q-147 -115 -250 -285q-129 -211 -129 -426q0 -205 118 -395q33 -53 147 -97.5t240 -44.5q127 0 228 49q80 39 188 185q99 131 107 131q37 -2 37 -53q0 -82 -82 -185 q-96 -121 -242 -174q-125 -45 -281 -45q-154 0 -280.5 42t-167.5 112q-125 209 -125 442z" />
<glyph unicode="D" horiz-adv-x="1132" d="M0 1466q0 49 164 50q281 0 516 -148q310 -191 324 -549v-25q0 -184 -113 -335q-76 -102 -258 -242q-293 -223 -371 -223q-18 0 -29 10q-31 29 -30 45q-1 8 21 38q18 25 19 56q0 6 -1 11q-14 324 -27 645q-27 582 -45 596q-8 6 -58 3q-14 -1 -26 -1q-31 0 -49 6 q-37 14 -37 63zM279 1192q0 -242 26 -621q25 -360 39 -381q2 -2 10 -2q49 0 170 74q143 88 238 207q123 151 127 317v14q0 195 -111 345q-92 125 -241 203q-125 63 -209 63q-16 0 -27 -4q-22 -8 -22 -198v-17z" />
<glyph unicode="E" horiz-adv-x="1802" d="M0 811q0 59 51 59q14 0 84 -23.5t129 -23.5h8q-29 225 -41 277q-34 150 -34 175q0 75 50 94.5t320 47.5q303 31 384 47.5t292 100.5q184 73 229 73h1q16 0 22 -6q49 -49 49 -84q0 -25 -33 -26q-23 -2 -231 -72q-223 -72 -338 -90q-197 -20 -395 -41q-242 -29 -248 -78 q-1 -4 -1 -10q0 -35 19 -135q33 -178 45 -269q174 12 402 39q244 29 283 45q10 4 20 4q41 0 41 -104q0 -47 -317 -57q-135 -4 -420 -15q18 -147 57 -438q4 -27 35 -27q17 0 117 25q93 23 163 23h11q98 -4 297 -43q248 -49 315 -58q186 -25 244 -39q106 -27 106 -65 q0 -39 -76 -39q-82 0 -278 43q-156 35 -311 69q-164 33 -320 33q-233 0 -250 -73q-8 -53 -18 -107q-8 -43 -43 -43q-8 0 -21 2q-49 10 -49 74q0 8 2 30v37q0 45 -6 84q-16 109 -67 508l-74 -6q-23 -2 -43 -2q-66 -1 -108 19q-54 26 -54 65z" />
<glyph unicode="F" horiz-adv-x="1900" d="M127 1610q59 0 252 -15q468 -34 750 -34h16q123 0 190 8q59 6 211 41q125 28 173 28h3.5h2.5q55 0 57 -32v-5q0 -124 -525 -124q-121 0 -266 8q-121 6 -270 10q-29 -49 -34 -70.5t-5 -89.5q0 -174 35 -549q63 8 196 43q115 31 156 31q53 0 64 -35q1 -3 1 -6 q0 -68 -407 -149l6 -60q18 -180 76 -385q40 -143 40 -178q0 -5 -1 -8q-10 -39 -53 -39q-51 0 -82 33q-18 18 -37 121q-25 135 -37 172q-14 47 -31 321q-53 -10 -235 -59q-137 -35 -195 -35q-86 0 -86 55q0 53 203 92q156 29 309 56q-14 276 -22 336q-14 158 -43 407 q-324 6 -398 10q-141 12 -141 41q0 59 127 60z" />
<glyph unicode="G" horiz-adv-x="1398" d="M0 479q0 227 137 482q129 240 322.5 405.5t361.5 165.5q59 0 109 -23q25 -10 24 -20q0 -16 -106 -51q-150 -51 -238 -97q-152 -80 -235 -190q-115 -152 -185 -326q-75 -182 -75 -336q0 -278 231 -360q43 -14 88 -14q141 0 293 141q117 106 219 272q90 142 90 179 q0 33 -51 45q-33 6 -123 6q-61 0 -151 -8.5t-117 -8.5q-100 0 -100 78q0 43 71 43q31 0 119 -10q98 -12 152 -16q28 -2 67 -2t88 2q129 4 152 4q148 0 166 -43q4 -8 4 -17q0 -23 -81 -33t-83 -42q-5 -76 -5 -148q0 -180 32 -334q16 -72 65 -157q43 -76 43 -99q0 -31 -43 -57 q-27 -16 -49 -16q-61 0 -86 143q-4 16 -25 264q-14 141 -47 141q-20 0 -61 -59q-66 -98 -94 -133q-74 -86 -164 -137q-186 -104 -348 -105q-94 0 -156 43q-211 152 -211 428z" />
<glyph unicode="H" horiz-adv-x="1544" d="M2 723q-1 3 -1 5q0 23 79 40q88 18 190 31q1 33 1 70t-1 79q-4 127 -94 432q-26 87 -26 124q0 66 63 71h3q67 0 85 -164q8 -123 45 -405q16 -100 16 -176v-17q29 2 87 12q299 100 604 138q53 8 153 16q0 27 2 53q14 180 47 359q44 251 92 251h1q51 -2 51 -94 q0 -74 -25 -180q-23 -90 -45 -178q-27 -106 -26 -137l-3 -70q134 0 134 -61v-7q-10 -75 -76 -75h-2q-23 0 -60 6q-2 -108 -2 -195q0 -250 17 -325q14 -66 32 -189q1 -10 1 -20q0 -83 -48 -103q-16 -6 -51 -18h-5q-52 0 -58 117q0 27 8 154.5t14 596.5q-78 13 -135 13h-8 q-127 -6 -350 -70q-176 -51 -351 -105q14 -145 15 -206q0 -164 -78 -174q-4 -1 -8 -1q-51 0 -53 99q0 23 22 256l-82 -17q-35 -6 -65.5 -16t-42.5 -8q-31 4 -66 88z" />
<glyph unicode="I" horiz-adv-x="251" d="M0 803v50q0 786 186 785h4q50 0 50 -26q0 -8 -37 -86q-45 -92 -72 -201q-37 -164 -37 -377q0 -70 4 -145q1 -16 1 -48q0 -64 -3 -194v-35q0 -127 13 -200q20 -117 75.5 -184.5t55.5 -69.5q0 -18 -62 -60q-18 -12 -35 -12q-137 0 -143 803z" />
<glyph unicode="J" horiz-adv-x="1048" d="M29 172q18 0 113.5 -27.5t158.5 -27.5q88 0 170 61q90 70 139 193q102 258 182 561t80 432q0 61 -20 63q-113 12 -305 58q-248 55 -250 90v8q0 57 53 57h2q8 0 17 -2q57 -23 114 -45q113 -45 215 -65q55 -12 105 -12q53 0 110 16q46 12 54 8q30 -12 30 -83v-5 q0 -106 -65 -379q-72 -276 -143.5 -553.5t-225.5 -410.5q-125 -109 -284 -109q-113 0 -198 49q-81 47 -81 96q0 28 29 27z" />
<glyph unicode="K" horiz-adv-x="1824" d="M0 1544q0 86 51 94q5 1 10 1q59 0 89 -115q20 -84 38 -310q23 -268 41 -380q4 -25 43 -248q51 16 80 32q117 70 301 226q211 176 344 332q223 260 301 260q18 0 17 -23q-4 -51 -6 -55q-41 -37 -80 -72q-27 -25 -260 -274q-203 -217 -262.5 -258t-114.5 -80 q-43 -29 -43 -45q0 -6 4 -11q152 -49 360 -137q76 -63 152 -129q117 -92 256 -143q16 -6 244 -37q172 -23 172 -58q0 -42 -109 -42q-90 0 -229 28q-121 25 -168 45q-80 33 -219.5 138.5t-194.5 132.5q-227 106 -350 106q-70 0 -121 -26l-51 -27q63 -354 63 -418 q0 -25 -6 -28q-35 -23 -98 -23q-62 0 -62 37q0 7 3 16q20 82 20 199q0 76 -8 170q-111 -59 -144 -60q-29 0 -22 37q12 86 55 125q29 27 97 43q-8 57 -29 185q-25 150 -103 465q-61 246 -61 327z" />
<glyph unicode="L" horiz-adv-x="997" d="M0 483q0 104 29 299q37 244 43 324q6 188 12 377q12 155 97 155h1q39 0 39 -129q0 -123 -52 -509t-52 -502q0 -41 4 -68q51 -309 364 -309q33 0 70 2q131 10 262 47q123 35 131 35q14 0 15 -12q-1 -14 -13 -43q-25 -53 -153 -101q-139 -49 -291 -49q-242 0 -379 129 q-127 119 -127 354z" />
<glyph unicode="M" horiz-adv-x="1753" d="M0 1552q0 33 55 47q3 1 6 1q40 0 84 -127q27 -82 70 -265q35 -152 43 -159q2 -2 6 -2q18 0 35.5 55t17.5 108q0 16 -3 31.5t-35.5 77t-32.5 90.5q0 47 73 59q5 1 10 1q62 0 93 -117q47 -188 88 -250q96 -137 311 -139h3q115 0 227 131q96 137 192 272q37 66 75 135.5 t87 69.5t49 -98q0 -57 -16 -136q-1 -8 -1 -22q0 -94 54 -479q61 -432 82 -498q4 -14 55 -96q41 -68 41 -105q0 -53 -76 -69q-3 -1 -7 -1q-70 0 -120 308q-10 66 -73 608q-39 330 -76 330q-32 0 -94 -111q-82 -147 -142 -211q-109 -119 -256 -137q-27 -4 -53 -4 q-115 0 -233 68q-66 39 -133 77h-3q-39 0 -59 -250q-12 -164 -12 -342q0 -23 5 -108.5t5 -136.5q0 -178 -59 -195q-5 -1 -9 -1q-73 0 -73 312q0 49 2 138q2 68 12 245q10 160 10 205q0 49 -53 187q-76 190 -100 276q-16 53 -49 148q-23 59 -23 79z" />
<glyph unicode="N" horiz-adv-x="1705" d="M0 1116q0 39 61 53q4 1 7 1q43 0 63 -109q4 -18 25 -230q12 -124 37 -124q41 0 96 100q43 76 59 135q4 12 4 27q0 25 -14 62.5t-14 49.5q0 39 79 54h3q30 0 77 -105q84 -180 116 -233.5t110 -124.5q92 -86 102 -99q90 -106 301 -247q186 -125 238 -138q25 -6 24 35 q0 -10 -28 185q-41 281 -41 505q0 59 4 109q10 137 116 373q90 199 127 237q6 6 15 6q16 0 30.5 -23.5t14.5 -51.5q0 -21 -10 -35q-49 -78 -105 -232q-82 -229 -84 -430q0 -78 41 -366.5t41 -386.5q0 -113 -49 -113q-66 0 -262 141q-131 100 -264 201q-59 41 -271 266 q-195 207 -231 217q-4 1 -8 1q-45 0 -88 -117q-43 -115 -50 -222q-12 -190 -18 -227q-23 -135 -88 -143h-8q-62 0 -62 129q1 0 15 233q1 19 1 38q0 100 -26 218q-29 121 -57.5 240t-28.5 141z" />
<glyph unicode="O" horiz-adv-x="956" d="M0 629v11q0 85 29 175q14 49 73 191q78 186 304 413q-45 45 -99 78q-80 51 -80 74t19.5 45t42.5 22q29 0 83 -49t111 -100q178 -147 203 -172q115 -113 170 -244q65 -151 64 -350v-45q-10 -279 -111 -453q-78 -133 -197 -192q-70 -34 -119 -34q-9 0 -18 1 q-125 18 -258 133q-213 182 -217 496zM123 612q-1 -15 -1 -31q0 -172 146 -315q135 -129 238 -129q94 0 174 131q103 169 111 480v24q0 338 -269 561q-61 -43 -114 -96q-129 -131 -193 -301q-51 -135 -59 -166q-27 -84 -33 -158z" />
<glyph unicode="P" horiz-adv-x="1312" d="M0 1556q4 35 207 60q174 22 368 22h17q96 0 156 -6q164 -16 327 -155q176 -148 176 -306q0 -133 -168 -266q-141 -113 -292 -155q-205 -59 -400 -88q4 -293 29 -361q63 -176 63 -223q0 -78 -80 -78h-12q-84 6 -84 104q0 16 6 78q1 24 1 44t-1 34q-12 129 -20 391 q-43 -4 -76 -4q-115 0 -130 46t-15 65q0 35 63 35q29 0 90 -7q25 0 66 -4q0 55 -2 95q6 197 20 477q4 37 4 74q0 25 -2 51q-12 -2 -49 -4q-74 -4 -92 -5q-171 0 -171 77q0 4 1 9zM391 782q106 6 373 95q178 59 264 149q51 53 84 145q18 49 18 72q0 66 -149 197 q-88 78 -295 78q-100 0 -231 -19q-61 -444 -62 -526v-76q-2 -66 -2 -115z" />
<glyph unicode="Q" horiz-adv-x="1220" d="M0 547q0 143 61 305q113 297 267 448q101 99 162 99q8 0 16 -2q23 -6 22 -27q0 -37 -114 -180q-131 -168 -166 -240q-106 -223 -107 -409q0 -326 303 -410q39 -10 80 -10q131 0 256 108q-18 20 -63 62q-152 139 -152 186q0 16 17 31q29 23 55 22q35 0 78 -45 q33 -33 63 -65q20 -14 84 -101q158 205 158 410q0 27 -4 51q-31 201 -119 357q-96 168 -231 231q-348 164 -349 229q0 23 43 23q102 0 263 -82q205 -104 335 -278q168 -225 179 -529v-34q0 -323 -181 -504q53 -76 131 -187q51 -76 115 -151q78 -93 109 -101q39 -10 39 -61 q0 -47 -45 -76q-12 -8 -27 -8q-92 0 -213 246q-57 115 -188 270q-121 -86 -281 -121q-85 -18 -147 -18q-23 0 -43 2q-109 12 -236 141q-170 172 -170 418z" />
<glyph unicode="R" horiz-adv-x="1259" d="M0 393q0 123 25 477q8 115 57 336q45 209 45 242q0 16 -5 21.5t-67 23.5q-49 16 -49 49q0 12 4 27q12 39 119 39q207 0 444 -105q268 -119 269 -266q0 -31 -13 -61q-66 -152 -170 -230q-45 -31 -157 -76q-66 -26 -66 -67q0 -62 89 -129q87 -66 180 -131q121 -94 186 -201 l98 -172q59 -98 109 -137q43 -33 147 -58q59 -12 59 -58q0 -5 -1 -11q-6 -45 -66 -45q-76 0 -180 78q-88 66 -154 174q-82 139 -119 180q-176 195 -339.5 319.5t-235.5 124.5q-18 0 -29 -10q-23 -23 -43 -111q-20 -81 -20 -159q0 -22 2 -43q4 -59 28 -170q23 -102 23 -138 q0 -72 -64 -77h-5q-101 0 -101 364zM162 942q0 -77 38 -77q4 0 9 1q104 23 283 131q222 138 222 264q0 8 -1 15q-10 90 -172 166q-135 65 -229 65h-3q-16 0 -22 -4q-35 -20 -74 -147t-45 -260t-6 -154z" />
<glyph unicode="S" horiz-adv-x="1005" d="M2 61q21 60 116 60q16 0 34 -2q81 -8 136 -8q61 0 89 10q244 82 301 119q126 88 126 263q0 13 -1 27q-4 74 -107 107q-98 20 -196 43q-113 31 -135 98q-33 96 -33 197q0 195 157 426q172 254 359 254q26 0 104 -33q6 -2 6 -6q0 -2 -124 -72q-147 -82 -234 -192 q-125 -162 -125 -387q0 -43 4 -88q8 -74 123 -113q109 -33 215 -64q115 -53 121 -163q1 -15 1 -30q0 -250 -257 -392q-215 -115 -487 -115q-91 0 -147 16q-47 14 -48 37q0 4 2 8z" />
<glyph unicode="T" horiz-adv-x="1253" d="M0 1577q0 20 23 47q23 14 45 14q33 0 94 -39q70 -45 106 -53q80 -12 258 -39q111 -18 219 -18q117 0 234 22q70 14 137 29q37 6 57.5 -18.5t20.5 -59.5q0 -33 -20.5 -50t-172.5 -17q-178 0 -426 24q-153 -385 -153 -723q0 -61 4 -116q1 -14 1 -34q0 -34 -4 -84t-4 -80 q0 -17 1 -28q14 -104 39 -215q22 -86 22 -105q0 -28 -22 -32q-7 -2 -14 -2q-46 0 -78 68q-37 78 -39 241q-1 58 -1 113q0 412 40 649q33 186 71 363q-31 4 -90 12q-348 49 -348 131z" />
<glyph unicode="U" horiz-adv-x="1302" d="M0 995q0 272 45 464q42 180 103 180q4 0 8 -1q63 -20 63 -55q0 -20 -29 -92q-35 -92 -51 -172q-28 -127 -28 -278v-11q0 -76 6 -158q35 -426 135 -618q71 -135 156 -135h2q117 2 279.5 218t213.5 449q74 342 88 392q41 138 97 138q5 0 10 -1q65 -14 65 -98 q0 -56 -40 -215.5t-40 -235.5q0 -18 2 -37q14 -115 23 -170q18 -98 43 -151q16 -37 63 -91q26 -31 26 -50q0 -4 -1 -7q-12 -45 -49 -90q-39 -51 -74 -51q-33 0 -51 59q-10 33 -31 275q-16 165 -67 165h-2q-31 -2 -103 -169q-90 -211 -166 -306q-116 -143 -268 -143 q-16 0 -33 2q-201 18 -307 340q-88 268 -88 653z" />
<glyph unicode="V" horiz-adv-x="1255" d="M0 1159q0 59 27 62q8 1 16 1q82 0 98 -79q2 -57 19 -185q23 -109 121 -389q131 -374 206 -374q8 0 17 4q63 41 420 1061q31 90 84 194q70 135 120 178q20 16 37 17q41 -1 41 -56q0 -31 -45 -94q-88 -125 -125 -233q-121 -350 -254 -719q-199 -549 -231 -557 q-57 -12 -68 -13q-35 0 -59 29q-49 57 -209 471q-154 395 -192 543q-23 86 -23 139z" />
<glyph unicode="W" horiz-adv-x="1673" d="M0 913q18 725 105 725h1q80 -4 80 -139q0 -61 -21.5 -200.5t-21.5 -188.5q0 -25 -3 -145.5t-3 -200.5q0 -453 84 -453q78 0 162 138q63 125 131 253q65 123 105 123h4q43 -6 59 -110q16 -111 31 -221q72 -365 264 -365q35 0 72 12q246 76 344 316q66 162 71 456 q1 26 1 51q0 458 -210 509q-61 12 -125 24q-39 8 -38 21q0 12 18 38q39 59 123 60q57 0 110 -29q72 -37 152 -211q100 -221 100 -485v-8q0 -145 -34 -295q-72 -322 -293 -477q-156 -111 -318 -111q-35 0 -51 6q-127 45 -197 162q-37 61 -75 197q-29 96 -60 98h-2 q-29 0 -76 -72q-66 -104 -106 -141q-82 -78 -188 -78q-27 0 -58 6q-70 12 -108 242q-30 173 -30 395q0 48 1 98z" />
<glyph unicode="X" horiz-adv-x="1368" d="M0 176q0 41 72 82q88 51 487 481q29 33 86 97l-78 133q-41 76 -84 151q-49 88 -98 142q-29 31 -168 159q-111 100 -154 166q-27 39 -2 51q8 4 21 4q80 0 250 -174q158 -162 280 -354q39 -53 121 -184q240 262 303 291q12 6 60 41q40 28 56 28h1q29 0 66.5 -27.5 t50.5 -54.5q20 -43 -21 -43t-149 -57q-121 -63 -164 -125q-29 -41 -150 -176q98 -168 166 -266q96 -129 258 -351q84 -119 84 -161q0 -35 -41 -35t-90 80q-35 66 -112 180q-74 86 -330 475q-125 -133 -281 -303q-55 -66 -190 -213q-121 -121 -178 -121q-16 0 -29 10 q-43 41 -43 74z" />
<glyph unicode="Y" horiz-adv-x="1181" d="M0 1563q0 10 15.5 17t35.5 7q51 0 127 -78q98 -102 125 -118q78 -47 209 -107q145 -61 190 -61q8 0 13 2q18 10 63 143t70 158q120 112 171 112h1q29 0 53.5 -19.5t24.5 -45.5q0 -39 -35 -113q-41 -84 -156 -211q-106 -115 -110 -131q-9 -43 -9 -223v-37q2 -240 23 -352 q10 -59 74 -250q57 -168 57 -217q0 -37 -22 -37h-8q-61 0 -78 29q-33 49 -80 282q-57 283 -62 308q-20 133 -20 311q0 31 11 100.5t11 87.5q0 23 -8 25q-92 27 -184 51q-174 51 -219 86q-283 213 -283 281z" />
<glyph unicode="Z" horiz-adv-x="1773" d="M0 203q0 66 205 301q131 152 262 305q233 266 331.5 355t198.5 177q86 78 86 105q0 4 -2 8q-16 25 -137 62q-128 38 -220 38h-5q-55 0 -84 -16q-47 -27 -86 -65q-29 -29 -37 -29q-6 0 -14 6q-55 45 -56 66q0 16 25 26q207 96 262 96h6q102 -20 205 -39q148 -27 221 -27 q12 0 21 1q164 11 164 12h-3q75 0 76 -36q0 -5 -2 -11q-8 -35 -160 -141q-190 -135 -294 -254q-211 -215 -422 -432q-242 -251 -242 -320q0 -7 2 -12q25 -51 201 -94q283 -70 416 -121q209 -80 419 -80q160 0 256 37q35 14 62 14q35 0 35 -18t-37 -45q-98 -72 -283 -72 q-209 0 -516 92q-424 127 -537 127q-33 0 -86 -16q-137 -43 -165 -43q-66 0 -66 43z" />
<glyph unicode="[" horiz-adv-x="776" d="M0 -2q0 82 23 242q2 25 8 69q-6 47 -4 189q18 111 43 342q39 799 30.5 848t53.5 92q12 8 28 8q27 0 67 -31t142 -8q80 18 70 18q33 0 43 -36q18 -61 -246 -62q-43 0 -72 -203q-16 -152 -32 -305q-12 -90 -48 -610q-33 -496 -32 -533q0 -41 194 -55q72 -4 142 -8 q78 -8 102.5 -25.5t99 -22.5t80.5 -11.5t6 -12.5q0 -14 -21.5 -29.5t-49.5 -15.5q-16 0 -31 6q-66 25 -320 50q-29 2 -92 -5q-74 -8 -98 -8q-39 0 -59 10q-27 14 -27 107z" />
<glyph unicode="\" horiz-adv-x="1193" d="M0 1587q0 18 39 43q12 8 27 8q170 0 655 -792q125 -197 250 -393q166 -281 166 -383q0 -52 -39 -62q-29 -8 -43 -8q-35 0 -56 70q-51 160 -92 256q-100 227 -289 508q-170 256 -335 444q-86 98 -209 219q-74 70 -74 90z" />
<glyph unicode="]" d="M0 -43q0 16 72 20q84 4 106.5 21.5t95.5 24.5l136 8q186 14 186 51q0 39 -33 508q-33 496 -45 581q-16 145 -31 291q-27 190 -67 191q-252 0 -234 59q10 33 39 33q-14 0 68 -16q100 -20 137 9t64 29q12 0 24 -8q59 -43 51 -88t31 -807q16 -119 39 -325q-4 -74 -4 -179 q2 -22 8 -65q23 -150 23 -232q0 -88 -27 -102q-16 -8 -49 -8q-25 0 -96 8q-63 6 -93 4q-102 -10 -155 -18q-109 -14 -148 -29q-14 -6 -28 -6q-27 0 -48.5 15.5t-21.5 29.5z" />
<glyph unicode="^" horiz-adv-x="978" d="M35 1128q0 29 35 60q18 16 112 57q86 37 111 68q43 51 86 100q55 68 55 84q0 6 -3 25.5t-3 29.5q0 39 36 52.5t62 13.5q35 0 41 -25q12 -76 27 -149q18 -111 45 -135q123 -117 190 -131q23 -4 41.5 -28t18.5 -46q0 -31 -37 -37q-80 -12 -252 156q-14 14 -72 94 q-39 55 -69 55q-33 0 -121 -94q-104 -115 -129 -131q-10 -8 -84 -62q-33 -25 -47 -24q-12 0 -21 12q-23 33 -22 55z" />
<glyph unicode="_" horiz-adv-x="1316" d="M29 10q2 37 61.5 50.5t231.5 13.5q88 0 260 -4q233 0 577 -11q56 -6 66 -61q6 -39 -168 -39q-72 0 -231.5 8t-215.5 8q-49 0 -187 -14t-204 -12q-82 2 -137 19.5t-53 41.5z" />
<glyph unicode="`" horiz-adv-x="288" d="M0 1657q12 12 18 20q23 23 41 23q20 0 39 -25q4 -6 82 -151q49 -92 49 -189q0 -59 -22 -116q-27 -74 -74 -74q-10 0 -18 6q-37 31 -29 61q2 6 29 45q14 20 14 82q0 88 -37 142q-29 37 -76 102q-37 53 -16 74z" />
<glyph unicode="a" horiz-adv-x="1333" d="M-74 254q0 233 168 410q78 82 187 135q117 57 223 57q140 0 140 -90q0 -8 -1 -16q-6 -20 -39 -27q-104 -6 -209 -12q-106 -16 -198 -86q-63 -47 -107.5 -153.5t-44.5 -201.5q0 -153 97 -153h1q102 0 375 262l207 207q94 94 115 94q5 1 10 1q33 0 47 -24q2 -4 18 -65 q10 -39 37 -137q41 -152 129 -213q63 -47 226 -80q27 -6 32 -8q14 -4 17.5 -15.5t3.5 -27.5q0 -92 -88 -93q-33 0 -74 17q-156 63 -217 145q-59 102 -117 205q-33 51 -80 61q-7 1 -14 1q-50 0 -117 -60q-45 -47 -143 -145q-285 -268 -408 -269q-33 0 -57 19 q-119 90 -119 262z" />
<glyph unicode="b" horiz-adv-x="763" d="M0 807q0 257 62 545q62 287 117 286h1q43 0 43 -71q0 -55 -76 -367q-28 -115 -28 -274v-11q0 -231 28 -256h1q10 0 124 67q121 71 129 71q90 0 177.5 -59.5t99.5 -143.5q6 -39 6 -78q0 -186 -107.5 -351t-211.5 -165q-102 0 -205 195q-92 174 -144 419q-16 76 -16 193z M182 526q-2 -4 -2 -11q0 -39 45 -181q59 -184 123 -184q6 0 14 2q199 74 199 305q0 139 -59 196q-25 23 -62 23q-68 0 -166 -70q-82 -59 -92 -80z" />
<glyph unicode="c" horiz-adv-x="794" d="M0 416q0 184 166 323q139 119 258 119q49 0 53 -31q1 -10 1 -19q0 -42 -23 -63q-16 -16 -74 -32q-66 -20 -98 -39q-55 -33 -101 -109q-49 -82 -49 -168q0 -47 17 -90q76 -201 227 -201q57 0 147 31t115 31q41 0 47 -49v-5q0 -31 -43 -48q-33 -16 -137 -37 q-141 -29 -178 -29q-195 0 -297 262q-31 78 -31 154z" />
<glyph unicode="d" horiz-adv-x="1183" d="M0 332q-1 10 -1 20q0 120 89 248q82 119 168 160q66 32 161 32q19 0 40 -1q106 -6 106 -43q0 -33 -47 -41q-74 -12 -147 -25q-76 -20 -127 -86q-113 -141 -113 -289q0 -53 23 -94q27 -49 75 -49q152 0 428 426q39 57 56 248q8 131 16 264q14 201 47 348q43 188 102 188h1 q45 -2 45 -120q0 -109 -54 -412q-23 -106 -61 -318q-6 -30 -6 -93q0 -73 8 -191q6 -100 156 -348q86 -141 86 -187q0 -25 -21 -34t-41 -9q-94 0 -166 162q-47 104 -61 195q-19 130 -101 130q-6 0 -12 -1q-25 -2 -74 -68q-39 -53 -122 -158q-154 -174 -308 -174h-4 q-119 2 -141 320z" />
<glyph unicode="e" d="M0 426q0 188 141 297q47 35 201 96q53 20 90 21q90 0 135 -125q6 -16 6 -33q0 -100 -190 -229q-109 -66 -215 -129q-20 -16 -21 -50q0 -86 129 -161q37 -20 84 -21q66 0 168.5 47t116.5 47q12 0 14 -12q2 -10 2 -20q1 -61 -73 -104q-86 -50 -207 -50q-119 0 -207 49 q-102 55 -137 162q-37 117 -37 215zM145 463q0 -39 15 -39q39 0 137 70q57 41 100 96q47 57 47 96q0 7 -2 14q-6 23 -32 23q-43 0 -166 -68q-98 -55 -99 -192z" />
<glyph unicode="f" horiz-adv-x="733" d="M0 690q11 58 79 58h7q10 0 66 -7q47 -6 81 -6q-1 50 -1 97q0 418 94 700q66 197 143 262q16 14 49 14q51 0 103.5 -26.5t52.5 -57.5q0 -43 -115 -49q-66 -4 -120 -126t-81 -304q-24 -162 -24 -477v-25q147 16 170 82q8 31 20.5 64t50.5 33q66 0 66 -76q0 -96 -111 -158 q-86 -47 -196 -57q8 -227 41 -453q20 -129 45 -352v-19q0 -55 -10 -88q-17 -57 -70 -57h-4q-37 2 -39 125q1 25 1 62q0 111 -5 323q-2 63 -25 207q-25 160 -30 248q-29 -1 -55 -1q-89 0 -133 11q-51 12 -51 44q0 4 1 9z" />
<glyph unicode="g" horiz-adv-x="1085" d="M-397 -1786q0 39 118 96q184 92 306 185q135 104 358 356q199 227 283 354q129 199 194 473q53 223 53 439q0 237 -47 237q-6 0 -14 -8q-90 -106 -240 -211q-196 -135 -338 -135h-16q-195 12 -252 295q-4 16 -4 35q0 156 227 313q215 150 394 150q141 0 141 -123 q0 -18 -4 -41q-4 -29 -29 -29q-14 0 -81.5 26.5t-112.5 26.5q-31 0 -58 -10q-131 -51 -229 -131q-125 -100 -125 -203q0 -72 63 -137q51 -53 123 -53q86 0 189 76q88 66 157 159q53 76 107 152q61 80 111 80q14 0 28 -6q43 -20 67.5 -149.5t24.5 -313.5q0 -283 -55 -539 q-66 -297 -186 -448q-229 -287 -523 -580q-408 -410 -557 -410q-31 0 -52 21.5t-21 52.5z" />
<glyph unicode="h" horiz-adv-x="1114" d="M0 950q0 270 27 455q31 236 98 236q4 0 8 -1q47 -8 47 -73q0 -27 -38 -237t-38 -392q0 -78 7 -154q27 -326 43 -428q16 -94 41 -94q6 0 20 6q72 66 145 133q117 102 196 102q8 0 17 -1q68 -10 150 -149.5t143 -139.5q10 0 32 4t34 4q94 0 94 -90q0 -43 -32.5 -79 t-75.5 -36q-86 0 -207 172q-129 181 -212 181h-3q-25 -2 -68 -33q-51 -39 -80 -92q-2 -4 -43 -113q-25 -68 -72 -104q-102 -82 -155 -82q-35 0 -39 39q-1 10 -1 21q0 41 18 87q24 58 24 84q0 14 -4 31q-53 262 -72 577q-4 63 -4 166z" />
<glyph unicode="i" horiz-adv-x="458" d="M2 106q-2 10 10 39q23 45 37 162q8 145 17 291q16 126 90 126q7 0 16 -1q45 -6 45 -49q0 -35 -37 -121q-41 -94 -47 -127q-4 -25 -4 -57q0 -55 16 -152q16 -109 19 -123v-10q0 -84 -96 -84q-31 0 -44.5 37t-21.5 69zM289 1247q0 31 27.5 60.5t50.5 27.5h61q39 -4 41 -37 q1 -12 1 -23q0 -105 -71 -106h-7q-42 -1 -72 21q-32 24 -31 57z" />
<glyph unicode="j" horiz-adv-x="387" d="M-666 -1509q-2 33 21 53q8 6 51 26q90 43 166 156q139 205 270 588q121 356 142 575q20 209 41 547q12 190 22 244q22 106 77 106h5q52 -3 52 -57q0 -12 -3 -27q-4 -29 -10 -40q-38 -188 -38 -375q0 -33 1 -66q1 -21 1 -42q0 -291 -150 -803q-160 -550 -306 -730 q-174 -215 -278 -215q-59 0 -64 60zM154 1303q0 29 47 38q8 1 17 1q27 0 65 -5q100 -12 100 -61q0 -37 -29 -70q-28 -30 -63 -35h-6q-39 0 -83 47q-48 50 -48 85z" />
<glyph unicode="k" horiz-adv-x="972" d="M0 150q-2 33 20 51q2 4 11 8q23 10 42 27.5t19 283.5q0 27 -8 494q-2 129 -64 370q-18 72 -18 103q0 43 33 53q5 2 10 2q40 0 70 -115q20 -86 51 -305q39 -287 39 -432q0 -92 -12 -213q-3 -25 -3 -47q0 -44 11 -74q8 -14 28 -2q41 33 138 197q74 129 163 289q25 39 72 39 q66 0 66 -42q0 -24 -179 -239q-180 -218 -180 -289v-6q2 -14 105 -67q70 -33 213 -105q266 -131 266 -184q0 -33 -45 -33t-197 92q-104 63 -209 127q-103 51 -172 51h-10q-68 -4 -89 -59t-40 -109q-15 -26 -52 -26h-3q-66 0 -76 160z" />
<glyph unicode="l" horiz-adv-x="460" d="M0 723q0 133 47 313l68 250q10 59 12 168q2 98 10 131q14 51 64 53h2q59 0 59 -96q0 -80 -47 -256q-61 -227 -63 -233q-39 -174 -39 -326q0 -59 6 -115q14 -137 82 -268q35 -70 118 -184q59 -84 60 -113q0 -47 -55 -47q-74 0 -164 168q-82 156 -137 371q-23 88 -23 184z " />
<glyph unicode="m" horiz-adv-x="2121" d="M0 741q0 72 78 93q4 1 7 1q40 0 65 -122l40 -242q55 -279 115 -283h4q64 0 140 117q68 113 135 225q81 121 155 121h2q72 -2 115 -119q31 -109 62 -215q37 -116 91 -116h1q51 0 106 108q94 190 101 199q71 108 163 108h2q72 0 131.5 -106.5t114.5 -212.5 q55 -94 118.5 -173t90.5 -91q14 -6 33 -6q25 0 72 16t61 16q33 0 33 -47q0 -43 -39 -69q-47 -35 -137 -35q-109 0 -215 143q-45 59 -158 266q-77 140 -114 140h-1q-41 -2 -104 -115q-119 -209 -119 -211q-78 -113 -148 -119h-7q-68 0 -124 109q-16 33 -84 213 q-43 117 -75 117q-31 0 -97 -101q-94 -147 -135 -196q-94 -109 -194 -125q-7 -1 -14 -1q-81 0 -140 156q-43 117 -65 285q-6 43 -37 143q-29 88 -29 129z" />
<glyph unicode="n" horiz-adv-x="1204" d="M0 778q0 20 4 25q14 12 33 12l76 -18q16 -4 57 -277.5t90 -279.5h2q33 0 107 122q113 186 149 236q100 127 191 127q12 0 24 -2q80 -14 111 -266q41 -334 88 -441q14 -31 57 -39q8 -2 74 -2q71 -2 71 -52q0 -5 -1 -11q-8 -63 -111 -64q-121 0 -186 66q-33 31 -78 358 q-42 291 -96 291h-3q-74 -10 -182 -221q-88 -164 -106 -242q-8 -31 -60.5 -62.5t-87.5 -35.5h-3q-54 0 -140 334q-80 315 -80 442z" />
<glyph unicode="o" horiz-adv-x="987" d="M0 371q0 153 272 280q16 8 45 21q12 6 31 18q12 14 4 62q-2 9 -2 17q0 35 28 49q34 18 122 18q121 0 213 -35q115 -43 125 -123q4 -41 4 -80q0 -172 -92 -319q-74 -119 -193 -201q-98 -70 -160 -72h-4q-97 0 -233 107q-160 124 -160 258zM158 395q0 -90 67 -172 q78 -92 190 -92h5q104 2 205 172q94 160 94 293q0 71 -37 96q-40 26 -81 26q-18 0 -36 -5q-47 -13 -47 -33q0 -5 4 -11q16 -28 -14 -36q-12 -2 -47 -8q-199 -39 -299 -195q-4 -16 -4 -35z" />
<glyph unicode="p" horiz-adv-x="870" d="M0 162q0 137 10 170q33 98 70 258q10 125 20 166q33 121 113 121q14 0 29 -5q29 -6 36 -50q7 -42 44 -42h4q16 2 98 13q74 10 113 10q45 0 71 -10q18 -8 70 -129q57 -131 57 -199q0 -43 -11 -100.5t-11 -77.5q0 -23 8 -43q2 -8 45 -74q35 -51 35 -80q0 -43 -66 -57 q-16 -4 -30 -4q-121 0 -121 176q0 43 9 131t9 131q0 209 -86 231q-27 8 -57 9q-100 0 -178 -80q-102 -102 -146 -324q-14 -74 -14 -194q0 -340 98 -900q12 -74 53 -200q33 -104 33 -142q0 -55 -59 -67q-4 -1 -8 -1q-110 0 -179 515q-59 430 -59 848z" />
<glyph unicode="q" horiz-adv-x="1101" d="M0 256q0 190 150 371q156 190 344 190q68 0 139 -26q90 -33 90 -93q0 -29 -30.5 -59.5t-57.5 -30.5q-20 0 -54 34t-61 46q-20 9 -43 9q-25 0 -53 -11q-123 -47 -217 -175t-94 -241q0 -109 96 -151q25 -10 55 -10q119 0 275 108q139 98 223 215q113 158 153 158 q20 0 43 -21q32 -31 32 -62q0 -13 -5 -26q-4 -10 -84 -127q-184 -270 -248 -645q-47 -276 -47 -481q0 -156 27 -248q25 -82 59 -86q23 -2 47 27q35 51 86 123q43 53 84 53q23 0 47 -12q8 -4 9 -19q0 -55 -99 -186q-137 -182 -192 -183q-117 0 -174 494q-6 45 -6 100 q0 180 71 500q20 90 56 244q12 62 12 92q0 20 -6 25q-4 3 -11 3q-22 0 -73 -28q-139 -76 -168 -88q-106 -49 -178 -49q-55 0 -91 28q-106 86 -106 238z" />
<glyph unicode="r" horiz-adv-x="980" d="M0 664q0 59 68 59t79 -150q4 -90 7 -182q6 -37 14 -78t18 -41q4 0 11 9q31 47 63 184q33 152 64 211q51 102 147 121q5 1 24 1t52 -1q41 0 80 26q27 18 125 99q63 53 92 53q41 0 41 -47q0 -100 -416 -275q-84 -35 -139 -252q-41 -162 -41 -249q-1 -40 -59 -100 q-52 -53 -92 -53q-5 0 -11 1q-39 6 -49 172q-6 123 -12 248q-6 39 -37 131q-29 82 -29 113z" />
<glyph unicode="s" horiz-adv-x="686" d="M0 111q0 45 35 45q12 0 71.5 -27t100.5 -27q23 0 45 7q82 27 139 79q74 66 74 146q0 111 -62 143q-16 8 -129 29q-82 16 -108 74q-14 33 -14 67q0 100 94 199q88 92 160 92q51 0 51 -43q0 -20 -49 -49q-61 -41 -86 -68q-41 -49 -41 -115v-12q2 -39 122 -90 q135 -55 166 -115q16 -29 16 -64q0 -82 -89 -200q-88 -115 -209 -155q-31 -10 -162 -27q-5 -1 -11 -1q-36 0 -72 34q-42 39 -42 78z" />
<glyph unicode="t" horiz-adv-x="886" d="M0 549q0 63 164 86q63 8 127 14q84 18 84 68.5t10 417.5q10 383 14 423t38 62q29 18 62 19q6 0 13 -1q39 -4 39 -47q0 -20 -39 -196q-45 -199 -59 -394q-1 -7 -1 -38q0 -63 3 -224q0 -29 30 -28q31 0 66 20q39 29 78 57q59 39 98 39q23 0 42 -15.5t19 -35.5 q0 -86 -278 -178q-47 -16 -47 -55q0 -51 26.5 -149.5t61.5 -164.5q37 -72 37 -120q0 -72 -74 -105q-10 -4 -20 -4q-92 0 -111 473q-6 23 -39 62q-16 10 -41 10q-22 0 -49 -8q-158 -41 -195 -41q-47 0 -55 30q-4 12 -4 23z" />
<glyph unicode="u" horiz-adv-x="1193" d="M0 666q0 78 49 82q8 1 15 1q88 0 100 -92q2 -90 2 -178q31 -307 139 -307q47 0 141.5 101.5t139.5 209.5q18 43 55 191q20 84 55 86h8q69 0 80 -101q0 -78 2 -155q6 -47 83 -195.5t96 -165.5q8 -8 59 -16q43 -8 54.5 -27.5t11.5 -50.5q0 -91 -107 -91q-9 0 -18 1 q-63 4 -121 127q-16 35 -84 223q-42 119 -69 119h-1q-53 -2 -115 -113q-102 -180 -118 -204q-84 -111 -191 -115h-2q-46 0 -98 108q-31 66 -90 244q-76 227 -76 318z" />
<glyph unicode="v" horiz-adv-x="831" d="M0 686q0 78 39 78h2h3q49 0 77 -125q23 -131 47.5 -259t40.5 -157q27 -46 83 -46q8 0 17 1q86 10 207 205q76 121 129 244q16 39 17 88q0 23 -4.5 58.5t-4.5 47.5q0 47 39 51h5q61 0 61 -186q0 -80 -10 -139q-12 -82 -183 -303q-186 -244 -297 -244q-78 0 -123 111 q-37 125 -73 247q-72 219 -72 328z" />
<glyph unicode="w" horiz-adv-x="1480" d="M-31 770q0 35 86 41h1q28 0 63 -80q23 -49 71 -197.5t74 -205.5q45 -100 88 -111q4 -1 8 -1q31 0 58 56q2 4 53 131q76 188 168 193h2q48 0 98 -90q18 -35 99 -207q119 -260 252 -260q25 0 51 8q100 29 100 170q0 78 -31 191q-2 6 -55 145q-14 39 -14 61q0 43 76 62 q4 1 9 1q73 0 113 -290q16 -117 17 -221q0 -119 -21 -143q-96 -116 -274 -116q-14 0 -29 1q-109 6 -192 160q-57 125 -115 249q-41 80 -86 84h-4q-33 0 -68 -65l-90 -180q-68 -104 -151 -105q-18 0 -39 4q-29 6 -78 131q-27 76 -72 191q-121 297 -157 362q-10 18 -11 31z " />
<glyph unicode="x" horiz-adv-x="1153" d="M0 748q0 4 4 8q20 16 59 35q27 0 72 -11q25 -2 80 -69q33 -45 68 -90q123 -158 209 -158q31 0 77 51q92 100 187 201q109 106 227 153q29 10 55 -2q6 -1 47 -32q10 -6 10 -25q0 -27 -22 -80q-23 -55 -59 -121q-8 -16 -37 13q-6 4 -17.5 14t-17.5 14q-20 20 -35 23 q-5 1 -10 1q-37 -1 -109 -61q-82 -70 -172 -186q-10 -14 -10 -33q0 -49 103 -131q76 -57 153 -115q90 -70 90 -98q0 -33 -55 -33q-57 0 -162 103q-51 51 -102 104q-74 70 -115 78q-8 2 -17 2q-76 0 -177 -141q-45 -61 -109 -166q-8 -12 -20 -29q-63 -63 -113 -63 q-20 0 -44 15t-24 36q0 41 160 190q49 45 135 131q70 74 70 105q0 38 -66 98q-94 72 -276 223q-37 35 -37 46z" />
<glyph unicode="y" horiz-adv-x="1026" d="M-766 -1315q0 37 11.5 52.5t64.5 29.5q68 6 137 10q100 14 207 95q145 109 328 358q483 660 483 775q0 80 -37 108q-43 23 -86 43q-70 41 -133 137q-154 229 -156 233q-82 131 -82 193q0 41 37 55q27 6 47 6q66 0 105 -114q68 -190 129 -283q51 -78 141 -152 q78 -61 109 -69h4q28 0 71 84q47 84 84 205l58 196q35 88 100 88q13 0 29 -4q37 -8 37 -67q0 -160 -248 -601.5t-580 -875.5q-233 -305 -450 -453q-171 -116 -297 -116h-2q-111 0 -111 67z" />
<glyph unicode="z" horiz-adv-x="1277" d="M0 63q0 27 16 46q156 178 342 292q51 33 254 134q103 50 103 97q0 26 -126 64q-128 38 -220 41h-8q-43 -1 -93 -19q-56 -20 -71 -20q-27 0 -48.5 30t-21.5 60q0 43 41 46q66 4 127 4q233 0 381 -45q131 -37 145 -93q5 -21 5 -61q0 -20 -1 -45q-2 -82 -16 -86 q-100 -30 -341 -190q-235 -156 -235 -191q0 -60 277 -76q221 -4 440 -8q115 -2 176 -39q51 -31 52 -74q0 -27 -19.5 -47t-46.5 -20q-33 0 -86 43q-68 55 -72 57q-12 6 -47 6q-47 0 -178 -18q-137 -18 -180 -19q-37 0 -152 31q-133 37 -342 49q-55 4 -55 51z" />
<glyph unicode="{" horiz-adv-x="1013" d="M8 633q2 61 82 88q57 8 113 18q29 6 207 391q104 225 208 453q33 66 83.5 119t70.5 53q6 0 31.5 -7t42.5 -7q12 0 28.5 7t20.5 7q8 0 8 -16q0 -41 -31 -101q-8 -14 -26 -14q-12 0 -74 23q-49 18 -188 -301q-133 -279 -279 -607q-6 -29 78 -166q55 -90 111 -178 q45 -119 90 -235q80 -205 124 -264.5t164 -63.5q113 -4 117 -20q4 -18 -37 -42t-94 -24q-147 0 -240 174q-109 254 -276 596q-37 57 -96 74q-20 4 -78 4q-6 0 -43 -8t-59 -8q-59 0 -58 55z" />
<glyph unicode="|" horiz-adv-x="311" d="M-47 -139q0 20 18 69q12 35 27 70q23 68 29 119q33 209 92 661q18 166 26 695q2 170 13 237q14 100 53 103q39 1 45 -136q6 -166 -23 -442q-33 -332 -36 -442q-2 -51 -33 -215q-37 -201 -49 -297q-6 -117 -21 -322q-14 -154 -92 -145q-49 6 -49 45z" />
<glyph unicode="}" horiz-adv-x="972" d="M6 -176q4 16 109 20q113 4 152.5 63.5t113.5 264.5q82 231 84 236l102 180q78 137 72 166q-96 223 -256 608q-127 319 -174 301q-61 -23 -70 -23q-18 0 -24 15q-29 61 -29 102q0 16 8 17q4 0 18.5 -6.5t26.5 -6.5q16 0 40 6.5t30 6.5q18 0 63 -52q47 -57 78 -123 q96 -227 193 -454q166 -387 190 -391q53 -10 105 -21q75 -25 77 -86q2 -57 -53 -57q-20 0 -55 9t-41 9q-115 0 -160 -78q-31 -51 -127 -290q-109 -264 -129 -308q-84 -176 -221 -176q-51 0 -89 23.5t-34 44.5z" />
<glyph unicode="~" horiz-adv-x="997" d="M-18 1841q0 16 8 33q23 41 73 84q68 59 138 59q59 0 147 -71q92 -78 184 -154q127 -94 213 -92q102 2 111 82q0 23 2 65q2 51 33 51q23 0 40 -26.5t17 -67.5q0 -86 -59.5 -135t-149.5 -47q-127 2 -241 88q-96 84 -195 168q-53 41 -82 37q-133 -14 -133 -68q6 -14 14 -43 q6 -16 7 -28q0 -27 -31 -27q-33 0 -64.5 29.5t-31.5 62.5z" />
<glyph unicode="&#xa1;" horiz-adv-x="376" d="M-6 49q0 20 6 43q31 92 61 184q49 164 80 332q41 227 37 277q0 10 -12 39q-8 23 -8 59q0 113 71 109q78 -4 72 -74q-16 -61 -43 -170q-20 -86 -45 -313q-23 -203 -57 -314q-14 -47 -37 -178q-14 -88 -49 -88q-31 0 -53.5 26.5t-22.5 67.5zM82 1493q0 23 24 92 q20 57 72 57q31 0 60.5 -21t29.5 -50q0 -53 -108 -103q-29 -12 -45 -12q-31 0 -33 37z" />
<glyph unicode="&#xa2;" horiz-adv-x="800" d="M-57 -84q0 47 68.5 105.5t68.5 82.5q0 8 -33 79t-33 151q0 74 27 166q96 346 321 346q41 0 87 -12q20 -8 40 -15q25 -4 66 84q10 45 19.5 86t76.5 51q51 8 51 -39q0 -49 -53 -141q-49 -84 -94 -129q-61 -61 -197 -301q-139 -250 -122 -289q10 -23 53 -22q49 0 116.5 25.5 t96.5 54.5q39 39 116 39q95 0 95 -41q0 -51 -181 -121q-168 -66 -247 -66q-55 0 -127 21q-18 6 -27 -21q-2 -2 -12 -51q-8 -39 -82 -125q-12 -16 -33 -16q-27 0 -45 37q-16 31 -16 61zM125 334q0 -55 12.5 -88t24.5 -27q27 14 188 324q0 2 56 86q35 55 34 82q1 41 -71 41 q-135 0 -207 -217q-37 -111 -37 -201z" />
<glyph unicode="&#xa3;" horiz-adv-x="1255" d="M29 129q0 72 125 262q127 199 129 211q2 18 -47 23q-31 -2 -64 -2q-92 4 -92 57q0 10 4 22q6 23 53 23q41 0 137 -20q90 -18 103 -17q29 6 246 318q102 147 129 178q74 84 133 84q18 0 35 -6q49 -18 49 -37q0 -14 -62 -60q-78 -55 -119 -106q-88 -119 -206 -277 q-31 -39 -31 -61q0 -41 94 -41q84 0 152 33q4 2 20.5 20.5t40.5 16.5q70 -4 70 -41q0 -51 -68 -80q-41 -18 -161.5 -28.5t-202.5 -4.5q-72 4 -189 -182q-113 -178 -98 -228q10 -37 106 -36q23 0 64 2t55 2q37 0 224.5 -71t224.5 -75q41 -4 151 41q104 43 127 35 q14 -6 15 -21q0 -29 -43 -69.5t-105 -63.5q-45 -16 -110 -16q-154 0 -305.5 62.5t-319.5 62.5q-31 0 -51 -4q-84 -18 -103 -19q-45 0 -77.5 34t-32.5 79z" />
<glyph unicode="&#xa4;" horiz-adv-x="948" d="M8 793q-4 106 111 192q43 31 207 113q12 6 30 18q12 14 4 61.5t26 65t122 17.5q121 0 213 -33q115 -43 125 -123q4 -41 4 -80q0 -172 -92 -322q-74 -119 -193 -200q-98 -70 -159 -72q-98 -2 -238 107q-156 123 -160 256zM166 819q0 -88 67 -170q80 -94 195 -92 q104 2 205 170q96 160 96 295q0 71 -39 96q-57 35 -117 19q-57 -16 -45 -41q14 -33 -12 -39q-12 -2 -45 -8q-205 -41 -301 -195q-4 -16 -4 -35z" />
<glyph unicode="&#xa5;" horiz-adv-x="960" d="M0 954q0 39 29 74q12 14 164 12q121 -2 178 -8q61 -6 67 25q4 23 -174 205q-37 37 -117 180q-86 152 -86 192q0 8 5 11q25 20 198 -232q39 -55 64 -86q41 -51 82 -100q66 -80 84 -86q20 -6 67 53q41 53 65.5 104.5t88.5 114.5q78 76 135 76t57 -51q0 -57 -86 -148 q-31 -33 -92 -129t-67 -119q-2 -8 57 -8q80 0 91 -11t11 -24q0 -14 -33 -45q-8 -8 -53 -8q-31 -2 -88 0q-63 2 -67 2q-39 0 -52 -6q-25 -10 -44 -68.5t-19 -89.5q0 -6 106 0q84 4 154 15q45 6 72 -23l4 -6q20 -20 20 -27q0 -14 -43 -26q-25 -4 -164 -2l-98 2q-47 2 -53 0 q-14 -2 -66 -150q-55 -160 -55 -252q0 -39 16 -104q18 -78 23 -105q12 -90 -43 -114q-37 -16 -55 86q-8 61 -29 190q-4 18 -4 39q0 90 45 205q57 141 65 182q2 8 -6 11q-4 0 -20 -3q-33 -4 -86 -17t-105 -28q-74 -18 -102 -12q-27 6 -27 41q0 31 19.5 61.5t42.5 30.5 q18 0 50 -17.5t50 -19.5q25 -2 152 33q23 6 39 6t36 64q14 47 19 88q0 14 -14.5 15t-49.5 5q-51 10 -276 -34q-18 -4 -33 -5q-49 0 -49 41z" />
<glyph unicode="&#xa6;" horiz-adv-x="198" d="M-8 129q0 59 8 197q2 137 16 338q6 33 54 36q31 2 30 -86q0 -43 -10 -143t-10 -133q8 -77 14 -229q-4 -113 -53 -109t-49 129zM-8 1067q0 59 8 197q2 137 16 338q6 33 54 36q31 2 30 -86q0 -43 -10 -143t-10 -131q8 -77 14 -231q-4 -113 -53 -109t-49 129z" />
<glyph unicode="&#xa7;" horiz-adv-x="624" d="M0 1354q0 111 162 254q35 31 98 30q86 0 173 -44t71 -76q-8 -16 -27 -17q-16 0 -78.5 32t-101.5 32q-35 0 -65.5 -21.5t-59.5 -68.5q-41 -63 -41 -123q0 -88 88 -158q342 -266 322 -489q-4 -45 -54 -58q-82 -23 -99 -34t-17 -35q0 -33 55 -155t55 -198q0 -203 -219 -225 q-94 -10 -176 74q-74 76 -74 139q0 35 29 35q25 0 102.5 -81t128.5 -81q23 0 45 12q78 45 78 138q0 98 -86 237q-66 104 -110 145q-27 23 -49 68q-35 68 -46 84q-25 39 -36 162q-6 66 -11 131q-2 14 23 22q45 14 45 15q8 4 8 12q0 10 -104 158q-29 39 -29 84zM141 987 q0 -29 20.5 -84t91.5 -124.5t122 -69.5q57 -1 57 65q0 72 -94 195q-27 37 -53 73q-18 25 -41 25q-14 0 -43 -10q-59 -20 -60 -70z" />
<glyph unicode="&#xa8;" horiz-adv-x="714" d="M2 1556q-8 35 21.5 58.5t72.5 23.5q92 0 92 -63q0 -37 -39.5 -77t-74.5 -40q-12 0 -21 4q-35 18 -41 44t-10 50zM426 1556q-8 35 21.5 57.5t72.5 22.5q92 0 92 -61q0 -37 -40 -77t-74 -40q-12 0 -21 4q-35 18 -41 44t-10 50z" />
<glyph unicode="&#xa9;" horiz-adv-x="1511" d="M0 709q0 195 172 350q66 59 102 59q8 0 13 -4q18 -16 -8 -53q-51 -63 -101 -127q-53 -72 -72 -148q-8 -33 -8 -71q0 -197 166 -328q106 -84 266 -84q174 0 326 98q184 119 215 181q2 4 43 41q188 170 186 421q0 139 -122 242q-145 123 -412 123q-168 0 -274 -63 q-53 -33 -203 -179q-51 -49 -96 -51q-27 0 -43.5 10.5t-14.5 32.5q2 33 41 82q199 250 580 250q305 0 559 -172q115 -78 115 -262q0 -129 -59.5 -274.5t-164.5 -262.5q-133 -150 -326.5 -245t-361.5 -95q-137 0 -225 66q-293 219 -293 463zM434 791q0 90 78 217 q16 27 39.5 66.5t118.5 74.5q66 23 125 33q78 12 86 -82q4 -35 -11.5 -62.5t-38.5 -21.5q-12 4 -20 12q-39 31 -63 31q-41 4 -97 -43q-106 -92 -106 -185q0 -68 59 -143q18 -23 162 -10q39 4 104 10q76 7 76 -26q0 -39 -80 -68q-59 -23 -110 -27q-12 0 -56 -10 q-35 -6 -57 -4q-66 4 -156 102q-53 57 -53 136z" />
<glyph unicode="&#xab;" horiz-adv-x="1292" d="M0 825q0 23 10 52q8 23 45 41t74 38.5t145 102.5q152 121 162 127q109 80 146 80q33 0 53 -39q8 -16 8 -29q0 -27 -61 -53q-90 -39 -131 -70q-82 -59 -162 -120.5t-92 -102.5q-20 -70 254 -178q98 -39 161 -105q55 -59 56 -106q0 -41 -43 -41q-20 0 -50 31q-59 63 -67 71 q-53 33 -146 90q-68 41 -163 76q-119 39 -140 49q-59 29 -59 86zM547 827q0 23 8 47.5t46 43t75 38t143 103.5q143 113 164 127q111 80 145 80q33 0 54 -39q8 -16 8 -29q0 -27 -62 -53q-92 -41 -131 -70q-82 -59 -161.5 -120.5t-92.5 -102.5q-18 -70 254 -178 q98 -39 162 -105q55 -59 55 -106q0 -41 -43 -41q-20 0 -49 31q-59 63 -67 71q-55 33 -148 90q-66 41 -164 76q-117 39 -137 49q-59 29 -59 88z" />
<glyph unicode="&#xac;" horiz-adv-x="1169" d="M0 827q2 49 51 65.5t193 16.5q76 0 239 -4q188 2 486 -8q10 2 38.5 -11.5t32.5 -33.5q14 -45 2 -57q0 -33 -12 -113q-8 -72 -8 -98q0 -25 18.5 -96.5t16.5 -106.5q-2 -43 -25.5 -69.5t-54.5 -26.5q-49 0 -65.5 29.5t-16.5 113.5q0 43 4 139q0 66 2 195 q-63 -2 -204.5 20.5t-188.5 22.5q-43 0 -164 -17.5t-178 -15.5q-168 4 -166 55z" />
<glyph unicode="&#xad;" horiz-adv-x="770" d="M0 643q0 49 59 62q49 10 246 10q10 0 172 4q111 4 147 -2.5t42 -61.5q6 -45 -117 -45q-35 0 -119 4q-76 6 -106 4q-74 -16 -218 -34q-45 0 -75.5 17t-30.5 42z" />
<glyph unicode="&#xae;" horiz-adv-x="1120" d="M-23 1079q0 143 127 258q49 43 80 43q8 0 11 -2q16 -16 -7 -45q-45 -57 -88 -114q-43 -68 -43 -138q0 -143 121 -237q76 -59 191 -60q127 0 239 72q121 78 152 123q0 2 -6 2q-43 18 -87 36.5t-81 53.5l-25 23l-24 18v-4q-4 -25 2 -45q20 -25 45 -96q4 -39 -54 -39 q-43 0 -57 14l-20 100q-2 12 -7 31q-12 43 25 80q10 12 -57 61q-31 23 -31 52q0 12 4 22q10 27 45 35q6 20 8 53q2 18 -12 18.5t-20 2.5q-23 2 -56 19.5t-33 35.5q0 29 89 47q23 4 49 4q88 0 172 -49t90 -100q10 -80 -135 -131q4 -6 12 -19l31 -39q35 -45 196 -104 q23 -8 21 -8q6 10 10 20q74 147 78 252q4 98 -88 174q-106 88 -301 88q-121 0 -199 -47q-39 -25 -149 -129q-39 -37 -72 -39q-23 -2 -36 7.5t-11 29.5q2 25 30 61q145 186 426 187q226 0 416 -129q86 -57 86 -197q0 -211 -164 -395q-98 -111 -240.5 -180.5t-267.5 -69.5 q-102 0 -167 49q-217 164 -218 344zM504 1364q6 -20 16 -23q25 -6 49 -6q37 3 31 21q-10 37 -59 37q-23 0 -37 -9q-4 0 0 -20z" />
<glyph unicode="&#xb0;" d="M0 1260q-4 121 209 227l33 16q27 14 26 31v14q-2 8 -2 13q-8 39 23 55q25 14 96 14q92 0 162 -26q86 -35 94 -101q4 -33 4 -63q0 -197 -141 -346q-113 -119 -199 -123q-76 -2 -182 84q-119 96 -123 205zM129 1280q0 -68 51 -129q57 -72 142 -70q76 2 151 133 q70 123 70 224q0 55 -27 71q-41 27 -84 15q-31 -10 -31 -25q16 -31 -12 -37q-4 -2 -35 -8q-154 -33 -221 -147q-4 -12 -4 -27z" />
<glyph unicode="&#xb1;" horiz-adv-x="968" d="M2 395q-8 47 47 70q47 18 240 53q201 43 465 88q31 0 49 -55q14 -45 -189 -80q-145 -23 -288 -45q-27 -6 -121 -43q-76 -31 -123 -31q-72 0 -80 43zM78 918q-14 55 147 110q133 41 264 82q51 20 103 33q119 360 180 346q20 -6 21 -35q0 -47 -117 -301q10 0 42 -2t54 -2 q154 4 156 -35q4 -59 -70 -59q-16 0 -64.5 3t-80.5 3q-41 0 -80 -4q-8 -23 -12 -35l-62 -234q-37 -131 -76 -120q-25 6 -24 37q0 31 26 98q33 92 37 104q16 59 39 137q-20 -6 -63 -18q-90 -31 -230 -104q-106 -55 -139 -56q-39 0 -51 52z" />
<glyph unicode="&#xb2;" horiz-adv-x="641" d="M2 1049q-8 33 76 153q76 109 129 160q127 123 127 164q0 35 -37 35q-12 0 -39 -16.5t-41 -16.5q-16 0 -31.5 13t-15.5 28q0 18 16 33q43 39 111 38q59 0 88 -43q23 -33 23 -69q0 -94 -162 -256q-96 -96 -117 -142q-4 -8 -10 -22l-4 -8q0 4 16 4q10 0 31.5 4t34.5 4 q74 -4 108 -14q29 -8 101 -43q35 -16 83 -37q8 -2 31 2t33 4q49 0 49 -45t-78 -45q-53 0 -143 43t-121 43q-10 0 -61.5 -2t-81.5 -2q-106 2 -115 33z" />
<glyph unicode="&#xb3;" horiz-adv-x="430" d="M4 911q0 23 25 43q33 27 80 31q20 2 85.5 81t65.5 110q0 33 -12 47q-10 8 -43 20q-49 16 -49 49q0 20 28 64q27 37 78 114q27 39 27 56q0 6 -4 10q-39 33 -72 33q-31 0 -90 -35q-29 -20 -49 -21q-47 0 -47 52q0 35 53 61q61 31 145 25q68 -4 121 -40t53 -89 q1 -35 -24 -72q-31 -39 -80 -104l-19 -19q0 -2 -2 0q4 -2 11.5 -7t9.5 -9q61 -47 63 -105q0 -55 -100 -192q-111 -150 -192 -150q-20 0 -41 13.5t-21 33.5z" />
<glyph unicode="&#xb6;" horiz-adv-x="1040" d="M0 983q0 41 31 94q100 174 162 258q117 160 210 203q227 100 342 100q45 0 66 -18q31 -29 31 -115q0 27 -27 -293q-10 -129 -10 -307q0 -285 29 -434q25 -121 59 -164q27 -20 51 -41q47 -61 47 -121q0 -55 -51 -55q-57 0 -129 164q-27 61 -59 252q-29 178 -33 276 q-2 88 8 310q12 213 21.5 276.5t9.5 95.5q0 82 -47 76q-33 -2 -66 -2q-25 -12 -61 -104q-45 -113 -56 -461q8 -31 27 -70q23 -16 -8 -45q-2 -2 -9.5 -7t-11.5 -7q-2 -135 9 -371q8 -244 18 -270q2 -8 37 -80q27 -55 26 -76q0 -8 -4 -12q-41 -35 -65 -35q-25 0 -45 31 q-39 63 -80 467q-6 61 -6 125q0 29 2 69v49q0 47 -19 54q-84 12 -168 26q-141 23 -155 43l-43 43q-33 35 -33 76z" />
<glyph unicode="&#xb7;" horiz-adv-x="270" d="M41 782q-8 33 20.5 54.5t71.5 21.5q86 0 86 -57q0 -37 -38 -75t-72 -38q-10 0 -19 4q-33 18 -39 42t-10 48z" />
<glyph unicode="&#xb8;" horiz-adv-x="647" d="M-129 -649q0 55 72 78q66 14 131 28q68 23 200 193q141 182 142 280q0 84 -131 84q-39 0 -114 -10t-99 -10q-47 0 -56.5 20.5t-9.5 34.5q0 18 13.5 39t13.5 31t-6 20q-18 35 145 35q141 0 147 -24q10 -51 118 -94.5t122 -104.5q27 -115 -233 -401.5t-392 -286.5 q-63 0 -63 88z" />
<glyph unicode="&#xb9;" horiz-adv-x="258" d="M0 918q2 16 35 180q63 309 51 391q-6 41 -6 63q0 72 51 80q35 6 35 -22v-15q4 -24 10 -75q12 -80 -24 -277l-33 -172q-16 -80 -17 -98q0 12 25 -86q2 -12 2 -21q0 -45 -59 -49q-41 -2 -57.5 26.5t-12.5 74.5z" />
<glyph unicode="&#xbb;" horiz-adv-x="1366" d="M0 1214q0 43 45 43q23 0 51 -32q61 -66 70 -74q20 -20 76 -49q70 -39 77 -43q70 -45 173 -80q123 -43 143 -53q63 -31 63 -92q0 -23 -10 -52q-8 -20 -47 -40.5l-78 -41t-151 -108.5q-164 -125 -170 -131q-115 -84 -152 -84q-35 0 -55 41q-8 18 -8 31q0 29 61 57 q98 43 137 72q96 70 191 139q100 78 106 100q12 57 -297 178q-102 41 -168 109q-57 61 -57 110zM565 1214q0 43 45 43q23 0 54 -30q63 -70 69 -76q20 -18 76 -49q70 -37 78 -43q70 -45 172 -80q123 -43 143 -53q61 -31 62 -90q-1 -23 -11 -54q-8 -20 -47 -40.5t-77.5 -41 t-149.5 -106.5q-164 -127 -172 -133q-115 -84 -152 -84q-35 0 -55 41q-8 16 -8 31q0 29 63 55q96 43 138 74q96 70 190 139q102 78 107 100q12 57 -297 178q-102 41 -168 109q-59 61 -60 110z" />
<glyph unicode="&#xbc;" horiz-adv-x="1202" d="M6 70q0 84 115 290q117 188 299 482q487 791 651 790q14 0 25 -6q42 -26 32 -49q-10 -25 -88 -98q-268 -258 -524 -643q-248 -369 -387 -779q-18 -53 -47 -53q-76 0 -76 66zM121 920q2 39 33 180q66 305 53 391q-6 45 -6 63q0 70 51 78q16 2 25.5 -2t7.5 -20v-15 q2 -5 10 -75q12 -102 -23 -277q-49 -248 -49 -268q-2 -12 8 -43q12 -39 15 -45q14 -66 -58 -68q-43 -2 -59 31q-10 23 -8 70zM590 332q0 147 105.5 410.5t152.5 254.5q39 -14 39 -51q0 -25 -19 -65q-31 -53 -90 -181q-88 -213 -102 -309q-4 -35 51 -41q25 -2 129 154 q84 127 119 194q27 51 55 52q62 0 62 -66q0 -84 -39 -162q-18 -39 -47 -209l-21 -123q-4 -31 -13 -64.5t-40 -33.5q-63 0 -64 62q0 45 21 88q16 35 41 114q27 92 28 138q-12 -18 -37.5 -48t-52.5 -69q-45 -68 -84 -139q-10 -16 -30 -21q-29 -6 -127 25q-37 12 -37 90z" />
<glyph unicode="&#xbd;" horiz-adv-x="1202" d="M6 70q0 84 115 290q117 188 299 482q487 791 651 790q14 0 25 -6q42 -26 32 -49q-10 -25 -88 -98q-268 -258 -524 -643q-248 -369 -387 -779q-18 -53 -47 -53q-76 0 -76 66zM121 920q2 39 33 180q66 305 53 391q-6 45 -6 63q0 70 51 78q16 2 25.5 -2t7.5 -20v-15 q2 -5 10 -75q12 -102 -23 -277q-49 -248 -49 -268q-2 -12 8 -43q12 -39 15 -45q14 -66 -58 -68q-43 -2 -59 31q-10 23 -8 70zM537 315q-8 33 75 154q76 109 129 160q127 123 127 164q0 35 -37 34q-14 0 -39.5 -16t-39.5 -16q-16 0 -31.5 13t-15.5 28q0 18 16 32 q43 39 110 39q59 0 89 -43q23 -33 22 -69q0 -92 -176 -271q-88 -90 -102 -127q-4 -8 -11 -24l-4 -6q0 4 18.5 6t63.5 4q74 -4 106.5 -12.5t102.5 -42.5q35 -16 84 -37q8 -2 30.5 2t32.5 4q50 0 50 -45q0 -47 -78 -47q-49 0 -140.5 44t-123.5 44q-10 0 -61.5 -3t-82.5 -3 q-106 2 -114 34z" />
<glyph unicode="&#xbe;" horiz-adv-x="1202" d="M4 911q0 23 25 43q33 27 80 31q20 2 85.5 81t65.5 110q0 33 -12 47q-10 8 -43 20q-49 16 -49 49q0 20 28 64q27 37 78 114q27 39 27 56q0 6 -4 10q-39 33 -72 33q-31 0 -90 -35q-29 -20 -49 -21q-47 0 -47 52q0 35 53 61q61 31 145 25q68 -4 121 -40t53 -89 q1 -35 -24 -72q-31 -39 -80 -104l-19 -19q0 -2 -2 0q4 -2 11.5 -7t9.5 -9q61 -47 63 -105q0 -55 -100 -192q-111 -150 -192 -150q-20 0 -41 13.5t-21 33.5zM6 70q0 84 115 290q117 188 299 482q487 791 651 790q14 0 25 -6q42 -26 32 -49q-10 -25 -88 -98 q-268 -258 -524 -643q-248 -369 -387 -779q-18 -53 -47 -53q-76 0 -76 66zM590 332q0 147 105.5 410.5t152.5 254.5q39 -14 39 -51q0 -25 -19 -65q-31 -53 -90 -181q-88 -213 -102 -309q-4 -35 51 -41q25 -2 129 154q84 127 119 194q27 51 55 52q62 0 62 -66q0 -84 -39 -162 q-18 -39 -47 -209l-21 -123q-4 -31 -13 -64.5t-40 -33.5q-63 0 -64 62q0 45 21 88q16 35 41 114q27 92 28 138q-12 -18 -37.5 -48t-52.5 -69q-45 -68 -84 -139q-10 -16 -30 -21q-29 -6 -127 25q-37 12 -37 90z" />
<glyph unicode="&#xbf;" horiz-adv-x="765" d="M0 428q0 127 96 266q55 80 178 201q72 72 130.5 146.5t54.5 93.5q-6 20 -19 61q-8 41 29 53q20 8 41 8q45 0 73.5 -35.5t28.5 -72.5q0 -10 -2 -19q-12 -35 -110 -159q-104 -135 -168 -185.5t-129 -156.5q-76 -121 -76 -203q0 -51 33 -78q53 -43 123 -43q55 0 112 27 q43 20 60 39q10 10 34 41q78 96 132 96q53 -1 53 -62q0 -74 -148 -174q-131 -88 -180 -90q-109 -4 -178 17q-168 51 -168 229zM309 1581q0 68 90 68q31 -1 58 -11q63 -23 63 -73q0 -63 -82 -92q-70 -25 -99.5 11t-29.5 97z" />
<glyph unicode="&#xc0;" horiz-adv-x="1267" d="M-49 680q-4 61 149 94q111 14 219 31q113 403 170 641q2 35 7 108q4 39 51 39q76 2 96 -71q20 -90 41 -179q72 -190 178 -505q37 -2 111 -2q39 0 98 14t76 14q43 0 43 -57q0 -63 -141 -64q-53 0 -164 11q16 -123 63 -359q16 -66 70 -200q39 -104 39 -142q0 -51 -62 -55 q-53 -2 -84 127q-27 152 -51 303q-10 59 -41 158q-41 133 -45 147l-8 31q-111 8 -170 2q-96 -8 -180 -25l-17 -61q-121 -455 -129 -477q-96 -311 -166 -314q-37 -2 -36 58q0 84 84 338q129 393 135 411l4 15q-68 -18 -185 -62q-82 -31 -108 -31q-43 0 -47 62zM227 2148 q0 72 45 72q70 2 86 -35q2 -6 9 -80q4 -55 79 -145q88 -109 187 -135q288 -81 282 -142q-2 -25 -5 -46t-23 -21q-16 0 -47 8q-51 14 -133 49q-61 27 -123 53q-172 70 -273 207q-84 115 -84 215zM436 825q61 10 156 23q9 0 156 -4q-104 401 -166 401q-47 0 -146 -420z" />
<glyph unicode="&#xc1;" horiz-adv-x="1267" d="M-49 680q-4 61 149 94q111 14 219 31q113 403 170 641q2 35 7 108q4 39 51 39q76 2 96 -71q20 -90 41 -179q72 -190 178 -505q37 -2 111 -2q39 0 98 14t76 14q43 0 43 -57q0 -63 -141 -64q-53 0 -164 11q16 -123 63 -359q16 -66 70 -200q39 -104 39 -142q0 -51 -62 -55 q-53 -2 -84 127q-27 152 -51 303q-10 59 -41 158q-41 133 -45 147l-8 31q-111 8 -170 2q-96 -8 -180 -25l-17 -61q-121 -455 -129 -477q-96 -311 -166 -314q-37 -2 -36 58q0 84 84 338q129 393 135 411l4 15q-68 -18 -185 -62q-82 -31 -108 -31q-43 0 -47 62zM264 1698 q-6 63 283 141q98 27 188 133q76 92 80 148q6 74 8 80q16 36 84 34q45 0 45 -73q0 -100 -82 -215q-100 -139 -272 -207q-86 -39 -256 -101q-31 -8 -47 -8q-23 0 -26 21.5t-5 46.5zM436 825q61 10 156 23q9 0 156 -4q-104 401 -166 401q-47 0 -146 -420z" />
<glyph unicode="&#xc2;" horiz-adv-x="1226" d="M-29 666q-4 59 144 90q104 14 209 30q111 389 163 617q2 8 7 98q2 43 49 43q74 2 94 -69q20 -86 41 -170q131 -350 170 -488q49 -2 106 -2q37 0 94.5 14.5t71.5 14.5q43 -1 43 -56q0 -61 -135 -61q-51 0 -160 10q16 -117 64 -346q16 -61 65 -192q39 -98 39 -136 q0 -51 -59 -53q-53 -2 -82 123q-25 145 -49 291q-8 53 -41 151q-35 106 -43 142l-6 28q-121 8 -166 5q-90 -8 -172 -25l-15 -59q-76 -311 -120 -459q-96 -299 -164 -301q-35 0 -35 55q0 82 80 326q125 373 131 395l4 14q-66 -18 -178 -59q-78 -29 -105 -29q-41 0 -45 58z M152 1518q0 27 34 59q18 16 108.5 55t113.5 70q43 51 88 102q55 66 55 82q0 6 -4 25.5t-4 32.5q0 37 37.5 50t62.5 13q33 0 39 -25q12 -70 25 -139q23 -121 49 -145q123 -117 190 -131q23 -4 41.5 -27.5t18.5 -46.5q0 -31 -37 -37q-84 -12 -254 156q-14 14 -72 96 q-37 53 -68 53q-33 0 -120 -94q-109 -115 -131 -131q-12 -8 -82 -61q-33 -25 -47 -25q-12 0 -21 12q-23 33 -22 56zM436 805q100 20 150 22q8 0 151 -4q-41 164 -85 327t-74 163q-29 0 -70 -180q-37 -164 -72 -328z" />
<glyph unicode="&#xc3;" horiz-adv-x="1226" d="M-29 666q-4 59 144 90q104 14 209 30q111 389 163 617q2 8 7 98q2 43 49 43q74 2 94 -69q20 -86 41 -170q131 -350 170 -488q49 -2 106 -2q37 0 94.5 14.5t71.5 14.5q43 -1 43 -56q0 -61 -135 -61q-51 0 -160 10q16 -117 64 -346q16 -61 65 -192q39 -98 39 -136 q0 -51 -59 -53q-53 -2 -82 123q-25 145 -49 291q-8 53 -41 151q-35 106 -43 142l-6 28q-121 8 -166 5q-90 -8 -172 -25l-15 -59q-76 -311 -120 -459q-96 -299 -164 -301q-35 0 -35 55q0 82 80 326q125 373 131 395l4 14q-66 -18 -178 -59q-78 -29 -105 -29q-41 0 -45 58z M113 1792q0 16 8 33q25 43 74 86q70 59 137 59q61 0 147 -72q92 -78 185 -155q127 -94 213 -92q102 2 110 82q0 25 2 70.5t33 45.5q20 0 38.5 -26.5t18.5 -67.5q0 -86 -59.5 -135t-147.5 -47q-129 2 -243 90q-96 84 -195 168q-49 39 -82 35q-137 -14 -131 -66q0 -2 12 -45 q6 -16 7 -26q0 -27 -29 -27q-35 0 -66.5 28.5t-31.5 61.5zM436 805q100 20 150 22q8 0 151 -4q-41 164 -85 327t-74 163q-29 0 -70 -180q-37 -164 -72 -328z" />
<glyph unicode="&#xc4;" horiz-adv-x="1226" d="M-29 666q-4 59 144 90q104 14 209 30q111 389 163 617q2 8 7 98q2 43 49 43q74 2 94 -69q20 -86 41 -170q131 -350 170 -488q49 -2 106 -2q37 0 94.5 14.5t71.5 14.5q43 -1 43 -56q0 -61 -135 -61q-51 0 -160 10q16 -117 64 -346q16 -61 65 -192q39 -98 39 -136 q0 -51 -59 -53q-53 -2 -82 123q-25 145 -49 291q-8 53 -41 151q-35 106 -43 142l-6 28q-121 8 -166 5q-90 -8 -172 -25l-15 -59q-76 -311 -120 -459q-96 -299 -164 -301q-35 0 -35 55q0 82 80 326q125 373 131 395l4 14q-66 -18 -178 -59q-78 -29 -105 -29q-41 0 -45 58z M270 1733q-8 35 22 57t73 22q92 0 92 -61q0 -39 -39 -78t-76 -39q-10 0 -18 4q-35 20 -42.5 45t-11.5 50zM436 805q100 20 150 22q8 0 151 -4q-41 164 -85 327t-74 163q-29 0 -70 -180q-37 -164 -72 -328zM694 1733q-8 35 21.5 57t72.5 22q93 0 93 -61q0 -39 -39 -78 t-76 -39q-10 0 -18 4q-35 20 -42.5 45t-11.5 50z" />
<glyph unicode="&#xc5;" horiz-adv-x="1226" d="M-29 666q-4 59 144 90q104 14 209 30q111 389 163 617q2 8 7 98q2 43 49 43q74 2 94 -69q20 -86 41 -170q131 -350 170 -488q49 -2 106 -2q37 0 94.5 14.5t71.5 14.5q43 -1 43 -56q0 -61 -135 -61q-51 0 -160 10q16 -117 64 -346q16 -61 65 -192q39 -98 39 -136 q0 -51 -59 -53q-53 -2 -82 123q-25 145 -49 291q-8 53 -41 151q-35 106 -43 142l-6 28q-121 8 -166 5q-90 -8 -172 -25l-15 -59q-76 -311 -120 -459q-96 -299 -164 -301q-35 0 -35 55q0 82 80 326q125 373 131 395l4 14q-66 -18 -178 -59q-78 -29 -105 -29q-41 0 -45 58z M260 1962q-4 135 209 227l33 15q29 16 28 32q0 4 -2 12.5t-2 14.5q-8 37 20.5 52.5t98.5 15.5q92 0 162 -27q86 -35 94 -98q4 -33 4 -64q0 -197 -139 -346q-115 -121 -201 -123q-76 -2 -182 84q-119 98 -123 205zM389 1982q0 -70 51 -131q57 -72 142 -69q76 2 151 133 q70 123 70 225q0 56 -27 72q-41 27 -84 14q-31 -10 -30 -26q16 -27 -13 -37q-6 0 -35 -6q-152 -31 -221 -148q-4 -12 -4 -27zM436 805q100 20 150 22q8 0 151 -4q-41 164 -85 327t-74 163q-29 0 -70 -180q-37 -164 -72 -328z" />
<glyph unicode="&#xc6;" horiz-adv-x="2383" d="M-287 -346q0 25 84 61q100 47 154 131q129 203 260 404q219 348 340 561q-289 -39 -342 -96q-33 -39 -66.5 -77t-60.5 -38q-25 0 -57.5 33t-32.5 57q0 47 194 109q244 78 410 96q57 106 84 178q10 27 102 316q37 121 72 129q45 12 340 20q299 8 422 0t225 -8 q213 0 272.5 36t110.5 36q64 -1 60 -56q-4 -49 -134 -78q-115 -27 -233 -22q-492 18 -526 18q-162 0 -228 -14q-98 -20 -116 -45q-8 -10 -9 -70q0 -16 19 -164q18 -166 24 -270q305 -16 525 -53q274 -45 268 -103q-4 -43 -74 -43q-49 0 -156.5 26t-211.5 50q-172 39 -349 56 q2 -68 -4 -133.5t-32 -211.5q-20 -119 -21 -163q0 -55 20.5 -66.5t51.5 -11.5q23 0 80 9t82 9q20 0 36 -4q129 -49 256 -96q236 -82 369 -88q111 -6 207 40t90 46q8 0 12 -12q12 -43 -55 -91q-78 -53 -205 -53q-117 0 -344 64.5t-344 64.5q-39 0 -72 -6q-102 -20 -163 -80 q-53 -53 -62 -53q-29 0 -67.5 25.5t-32.5 54.5q18 88 59 330q53 307 53 391v41q-92 4 -127 2q-84 -4 -231 -21l-33 -59q-115 -207 -295 -516q-250 -426 -319 -504q-143 -164 -211 -164q-35 0 -57 43q-10 18 -11 33zM684 903q84 8 201 6q46 0 114 -4q-4 348 -63 348 q-57 0 -252 -350z" />
<glyph unicode="&#xc8;" horiz-adv-x="1802" d="M-14 811q0 59 51 59q14 0 83.5 -23.5t129.5 -23.5h8q-29 225 -41 277q-35 154 -35 176q0 74 50.5 93.5t320.5 47.5q303 31 384 47.5t292 100.5q186 74 229 73q16 0 23 -6q49 -49 49 -84q0 -25 -33 -26q-23 -2 -231 -72q-223 -72 -338 -90q-197 -20 -396 -41 q-242 -29 -247 -78q-4 -27 18 -145q33 -178 45 -269q174 12 402 39q244 29 282 45q10 4 21 4q41 0 41 -104q0 -47 -318 -57q-135 -4 -420 -15q18 -147 58 -438q4 -27 35 -27q14 0 115.5 25t174.5 23q98 -4 295 -43q248 -49 316 -58q188 -25 245 -39q106 -27 107 -65 q0 -39 -76 -39q-82 0 -278 43q-156 35 -312 69q-164 33 -319 33q-233 0 -250 -73q-8 -53 -18 -107q-8 -43 -43 -43q-8 0 -21 2q-49 10 -49 74q0 8 2 30v37q0 45 -6 84q-16 109 -68 508q-27 -2 -74 -6q-96 -8 -150 17.5t-54 64.5zM348 2105q0 74 45 74q68 0 84 -35 q2 -6 8 -80q4 -55 80 -145q90 -109 189 -135q286 -81 282 -142l-4 -49q-4 -18 -26 -18q-14 0 -45 8q-51 14 -136 49q-61 27 -123 54q-172 68 -272 206q-82 113 -82 213z" />
<glyph unicode="&#xc9;" horiz-adv-x="1802" d="M-14 811q0 59 51 59q14 0 83.5 -23.5t129.5 -23.5h8q-29 225 -41 277q-35 154 -35 176q0 74 50.5 93.5t320.5 47.5q303 31 384 47.5t292 100.5q186 74 229 73q16 0 23 -6q49 -49 49 -84q0 -25 -33 -26q-23 -2 -231 -72q-223 -72 -338 -90q-197 -20 -396 -41 q-242 -29 -247 -78q-4 -27 18 -145q33 -178 45 -269q174 12 402 39q244 29 282 45q10 4 21 4q41 0 41 -104q0 -47 -318 -57q-135 -4 -420 -15q18 -147 58 -438q4 -27 35 -27q14 0 115.5 25t174.5 23q98 -4 295 -43q248 -49 316 -58q188 -25 245 -39q106 -27 107 -65 q0 -39 -76 -39q-82 0 -278 43q-156 35 -312 69q-164 33 -319 33q-233 0 -250 -73q-8 -53 -18 -107q-8 -43 -43 -43q-8 0 -21 2q-49 10 -49 74q0 8 2 30v37q0 45 -6 84q-16 109 -68 508q-27 -2 -74 -6q-96 -8 -150 17.5t-54 64.5zM487 1608q-4 63 283 141q98 27 186 133 q76 92 82 148q8 78 11 79q13 37 81 35q45 0 46 -73q0 -100 -82 -216q-100 -139 -273 -206q-86 -39 -258 -101q-31 -8 -45 -8q-23 0 -26 19z" />
<glyph unicode="&#xca;" horiz-adv-x="1802" d="M-14 811q0 59 51 59q14 0 83.5 -23.5t129.5 -23.5h8q-29 225 -41 277q-35 154 -35 176q0 74 50.5 93.5t320.5 47.5q303 31 384 47.5t292 100.5q186 74 229 73q16 0 23 -6q49 -49 49 -84q0 -25 -33 -26q-23 -2 -231 -72q-223 -72 -338 -90q-197 -20 -396 -41 q-242 -29 -247 -78q-4 -27 18 -145q33 -178 45 -269q174 12 402 39q244 29 282 45q10 4 21 4q41 0 41 -104q0 -47 -318 -57q-135 -4 -420 -15q18 -147 58 -438q4 -27 35 -27q14 0 115.5 25t174.5 23q98 -4 295 -43q248 -49 316 -58q188 -25 245 -39q106 -27 107 -65 q0 -39 -76 -39q-82 0 -278 43q-156 35 -312 69q-164 33 -319 33q-233 0 -250 -73q-8 -53 -18 -107q-8 -43 -43 -43q-8 0 -21 2q-49 10 -49 74q0 8 2 30v37q0 45 -6 84q-16 109 -68 508q-27 -2 -74 -6q-96 -8 -150 17.5t-54 64.5zM322 1604q0 25 22 55q14 18 98 78 q78 55 95 90q31 59 63 117q39 76 37 92q0 4 -10.5 29.5t-10.5 39.5q0 27 35 47.5t64 20.5q23 0 30 -16l54 -132q47 -113 78 -131q145 -88 213 -88q27 0 50 -21.5t23 -45.5q0 -39 -59 -39q-80 0 -248 102q-23 14 -86 74q-47 45 -74 45q-37 0 -108 -119q-90 -145 -99.5 -154.5 t-70.5 -80.5q-27 -33 -43 -33q-8 0 -19 10q-35 33 -34 60z" />
<glyph unicode="&#xcb;" horiz-adv-x="1802" d="M-14 811q0 59 51 59q14 0 83.5 -23.5t129.5 -23.5h8q-29 225 -41 277q-35 154 -35 176q0 74 50.5 93.5t320.5 47.5q303 31 384 47.5t292 100.5q186 74 229 73q16 0 23 -6q49 -49 49 -84q0 -25 -33 -26q-23 -2 -231 -72q-223 -72 -338 -90q-197 -20 -396 -41 q-242 -29 -247 -78q-4 -27 18 -145q33 -178 45 -269q174 12 402 39q244 29 282 45q10 4 21 4q41 0 41 -104q0 -47 -318 -57q-135 -4 -420 -15q18 -147 58 -438q4 -27 35 -27q14 0 115.5 25t174.5 23q98 -4 295 -43q248 -49 316 -58q188 -25 245 -39q106 -27 107 -65 q0 -39 -76 -39q-82 0 -278 43q-156 35 -312 69q-164 33 -319 33q-233 0 -250 -73q-8 -53 -18 -107q-8 -43 -43 -43q-8 0 -21 2q-49 10 -49 74q0 8 2 30v37q0 45 -6 84q-16 109 -68 508q-27 -2 -74 -6q-96 -8 -150 17.5t-54 64.5zM500 1679q0 31 32.5 52.5t73.5 21.5 q80 0 80 -57q0 -39 -36 -82t-68 -43q-35 0 -54 28q-2 2 -24 58q-4 10 -4 22zM918 1745q0 31 33.5 53.5t76.5 22.5q76 -1 76 -60q0 -45 -41 -90t-74 -33q-37 12 -48 37t-19 49q-4 10 -4 21z" />
<glyph unicode="&#xcc;" horiz-adv-x="251" d="M-176 2200q0 74 45 73q68 2 84 -35q2 -6 8 -79q4 -55 80 -148q88 -106 186 -133q291 -78 285 -141q-2 -25 -5 -46.5t-26 -21.5q-16 0 -47 8q-16 4 -256 101q-172 70 -272 207q-82 115 -82 215zM0 803q-6 836 186 835q54 1 54 -26q0 -8 -37 -86q-45 -92 -72 -201 q-37 -164 -37 -377q0 -70 4 -145q2 -47 -2 -242q-2 -152 13 -235q20 -117 75.5 -184.5t55.5 -69.5q0 -18 -62 -60q-18 -12 -35 -12q-137 0 -143 803z" />
<glyph unicode="&#xcd;" horiz-adv-x="251" d="M-188 1698q-6 63 282 141q98 27 189 133q76 92 79 148q6 74 9 80q16 36 84 34q45 0 45 -73q0 -100 -82 -215q-100 -139 -273 -207q-86 -39 -256 -101q-31 -8 -47 -8q-23 0 -25.5 21.5t-4.5 46.5zM0 803q-6 836 186 835q54 1 54 -26q0 -8 -37 -86q-45 -92 -72 -201 q-37 -164 -37 -377q0 -70 4 -145q2 -47 -2 -242q-2 -152 13 -235q20 -117 75.5 -184.5t55.5 -69.5q0 -18 -62 -60q-18 -12 -35 -12q-137 0 -143 803z" />
<glyph unicode="&#xce;" horiz-adv-x="251" d="M-166 1804q0 35 43 64q20 14 119 39q90 25 117 51q4 4 100 90q66 57 68 74q0 29 2 55q4 39 39 45q96 18 102 -24q2 -70 4 -142q6 -123 29 -149q104 -133 170 -156q51 -18 51 -74q0 -39 -43 -39q-84 0 -229 189q-8 12 -60 108q-33 61 -65 62q-31 0 -129 -82 q-115 -94 -144 -109q-16 -8 -86 -47q-37 -20 -51 -20q-16 0 -26.5 24.5t-10.5 40.5zM0 803q-6 836 186 835q54 1 54 -26q0 -8 -37 -86q-45 -92 -72 -201q-37 -164 -37 -377q0 -70 4 -145q2 -47 -2 -242q-2 -152 13 -235q20 -117 75.5 -184.5t55.5 -69.5q0 -18 -62 -60 q-18 -12 -35 -12q-137 0 -143 803z" />
<glyph unicode="&#xcf;" horiz-adv-x="251" d="M-51 1843q-8 35 22.5 58.5t73.5 23.5q88 0 88 -61q0 -39 -39 -79t-76 -40q-10 0 -18 4q-35 20 -41 45t-10 49zM0 803q-6 836 186 835q54 1 54 -26q0 -8 -37 -86q-45 -92 -72 -201q-37 -164 -37 -377q0 -70 4 -145q2 -47 -2 -242q-2 -152 13 -235q20 -117 75.5 -184.5 t55.5 -69.5q0 -18 -62 -60q-18 -12 -35 -12q-137 0 -143 803zM373 1843q-8 35 22.5 58.5t73.5 23.5q88 0 88 -61q0 -39 -39 -79t-76 -40q-10 0 -18 4q-35 20 -41 45t-10 49z" />
<glyph unicode="&#xd0;" horiz-adv-x="1261" d="M-18 766q2 47 71 55q43 6 295 6h25q-25 582 -43 596q-8 6 -29 7q-8 0 -28.5 -2.5t-32.5 -2.5q-84 0 -84 72q0 49 168 49q287 0 526 -147q316 -196 332 -563q8 -205 -113 -369q-80 -106 -266 -250q-297 -227 -379 -227q-20 0 -31 10q-31 27 -31 45q0 8 23 40t18 69 q-2 18 -26 575h-10q-31 0 -124 -14.5t-137 -12.5q-55 2 -89.5 20.5t-34.5 43.5zM440 1225q0 -156 13 -400q240 0 278.5 -6t44.5 -65q4 -41 -112 -41q-31 0 -205 12q31 -504 49 -532q2 -4 10 -5q51 0 174 76q147 90 244 211q125 156 129 326q4 207 -113 368q-94 127 -250 205 q-125 66 -213 66q-16 0 -26 -4q-23 -6 -23 -211z" />
<glyph unicode="&#xd1;" horiz-adv-x="1691" d="M0 1116q0 39 61 53q49 10 70 -108q4 -18 25 -230q12 -125 37 -124q41 0 96 100q43 76 59 135q4 12 4 27q0 25 -14 62.5t-14 49.5q0 39 79 54q31 6 80 -105q84 -180 116 -233.5t110 -124.5q92 -86 102 -99q90 -106 301 -247q186 -125 238 -138q25 -6 24 35q0 -10 -28 185 q-41 281 -41 505q0 59 4 109q10 137 116 373q90 199 127 237q6 6 15 6q16 0 30.5 -23.5t14.5 -51.5q0 -21 -10 -35q-49 -78 -105 -232q-82 -229 -84 -430q0 -78 41 -366.5t41 -386.5q0 -113 -49 -113q-66 0 -262 141q-131 100 -264 201q-59 41 -271 266q-195 207 -231 217 q-49 12 -96 -116q-43 -115 -50 -222q-12 -190 -18 -227q-23 -135 -88 -143q-70 -8 -70 129q0 -14 15 233q6 115 -25 256q-29 121 -57.5 240t-28.5 141zM242 1456q0 16 8 33q23 43 74 86q68 59 137 59q20 0 41 -6q37 -10 104 -65q92 -78 187 -156q127 -94 213 -92q80 2 98 43 q10 18 14 106q2 51 33 52q20 0 37.5 -27t17.5 -68q0 -86 -58.5 -135t-148.5 -47q-158 2 -327 158q-37 37 -109 98q-49 39 -84 35q-137 -16 -131 -66q2 -10 11.5 -33.5t9.5 -35.5q0 -29 -31 -29q-33 0 -64.5 28.5t-31.5 61.5z" />
<glyph unicode="&#xd2;" horiz-adv-x="964" d="M0 629q-2 90 29 186q14 49 73 191q78 186 304 413q-45 45 -99 78q-80 51 -80 74t19.5 45t42.5 22q27 0 82 -49t112 -100q172 -141 201 -170q115 -113 170 -246q72 -168 64 -395q-10 -279 -111 -453q-76 -133 -195 -192q-84 -41 -137 -33q-125 18 -258 133 q-213 182 -217 496zM123 612q-14 -190 145 -346q135 -129 238 -129q94 0 174 131q103 169 111 480q10 354 -269 585q-61 -43 -114 -96q-129 -131 -193 -301q-51 -135 -59 -166q-27 -84 -33 -158zM125 2062q0 72 45 72q70 0 86 -35q2 -6 8 -80q4 -55 80 -147 q88 -109 186 -135q289 -79 283 -140q-2 -25 -5 -46t-24 -21q-16 0 -47 8q-53 14 -133 47q-61 27 -123 53q-172 68 -272 207q-84 115 -84 217z" />
<glyph unicode="&#xd3;" horiz-adv-x="964" d="M0 629q-2 90 29 186q14 49 73 191q78 186 304 413q-45 45 -99 78q-80 51 -80 74t19.5 45t42.5 22q27 0 82 -49t112 -100q172 -141 201 -170q115 -113 170 -246q72 -168 64 -395q-10 -279 -111 -453q-76 -133 -195 -192q-84 -41 -137 -33q-125 18 -258 133 q-213 182 -217 496zM111 1737q-6 63 284 141q98 27 187 133q76 92 80 148q6 74 8 79q16 37 84 35q45 0 45 -73q0 -100 -82 -215q-100 -137 -273 -207q-86 -39 -256 -101q-31 -8 -47 -8q-23 0 -25.5 21.5t-4.5 46.5zM123 612q-14 -190 145 -346q135 -129 238 -129 q94 0 174 131q103 169 111 480q10 354 -269 585q-61 -43 -114 -96q-129 -131 -193 -301q-51 -135 -59 -166q-27 -84 -33 -158z" />
<glyph unicode="&#xd4;" horiz-adv-x="964" d="M0 629q-2 90 29 186q14 49 73 191q78 186 304 413q-45 45 -99 78q-80 51 -80 74t19.5 45t42.5 22q27 0 82 -49t112 -100q172 -141 201 -170q115 -113 170 -246q72 -168 64 -395q-10 -279 -111 -453q-76 -133 -195 -192q-84 -41 -137 -33q-125 18 -258 133 q-213 182 -217 496zM100 1677q0 31 35 62q18 16 113 55q86 37 110 68l86 102q55 66 56 82q0 6 -3 24.5t-3 30.5q0 39 36.5 52.5t61.5 13.5q35 0 41 -25q12 -76 26 -149q18 -111 46 -135q121 -115 190 -132q23 -6 41 -28.5t18 -44.5q1 -31 -36 -37q-82 -12 -252 156 q-14 14 -72 96q-39 53 -70 53q-33 0 -121 -94q-104 -115 -129 -131q-4 -2 -81 -62q-35 -25 -50 -24q-12 0 -20 12q-23 35 -23 55zM123 612q-14 -190 145 -346q135 -129 238 -129q94 0 174 131q103 169 111 480q10 354 -269 585q-61 -43 -114 -96q-129 -131 -193 -301 q-51 -135 -59 -166q-27 -84 -33 -158z" />
<glyph unicode="&#xd5;" horiz-adv-x="964" d="M-12 1808q0 16 8 33q23 41 74 84q68 59 137 60q20 0 41 -7q35 -10 104 -65q94 -78 187 -154q127 -94 213 -92q102 2 110 82q0 23 2 66q2 51 33 51q20 0 37.5 -25.5t17.5 -66.5q0 -86 -58.5 -136.5t-148.5 -48.5q-127 2 -241 88q-96 84 -195 168q-53 41 -82 37 q-133 -14 -133 -65q2 -12 11.5 -36t9.5 -36q0 -29 -33 -29t-63.5 30t-30.5 62zM0 629q-2 90 29 186q14 49 73 191q78 186 304 413q-45 45 -99 78q-80 51 -80 74t19.5 45t42.5 22q27 0 82 -49t112 -100q172 -141 201 -170q115 -113 170 -246q72 -168 64 -395 q-10 -279 -111 -453q-76 -133 -195 -192q-84 -41 -137 -33q-125 18 -258 133q-213 182 -217 496zM123 612q-14 -190 145 -346q135 -129 238 -129q94 0 174 131q103 169 111 480q10 354 -269 585q-61 -43 -114 -96q-129 -131 -193 -301q-51 -135 -59 -166q-27 -84 -33 -158z " />
<glyph unicode="&#xd6;" horiz-adv-x="964" d="M0 629q-2 90 29 186q14 49 73 191q78 186 304 413q-45 45 -99 78q-80 51 -80 74t19.5 45t42.5 22q27 0 82 -49t112 -100q172 -141 201 -170q115 -113 170 -246q72 -168 64 -395q-10 -279 -111 -453q-76 -133 -195 -192q-84 -41 -137 -33q-125 18 -258 133 q-213 182 -217 496zM123 612q-14 -190 145 -346q135 -129 238 -129q94 0 174 131q103 169 111 480q10 354 -269 585q-61 -43 -114 -96q-129 -131 -193 -301q-51 -135 -59 -166q-27 -84 -33 -158zM176 1815q-8 35 22.5 57t73.5 22q90 0 90 -59q0 -39 -39.5 -79t-76.5 -40 q-10 0 -19 4q-33 18 -40 44t-11 51zM600 1815q-8 35 22.5 57t73.5 22q90 0 90 -59q0 -39 -39.5 -79t-76.5 -40q-10 0 -19 4q-33 18 -40 44t-11 51z" />
<glyph unicode="&#xd7;" horiz-adv-x="1196" d="M16 1153q0 4 4 8q41 35 62 37q-20 0 72 -10q23 -2 63 -51q63 -82 127 -166q90 -100 164 -101q31 0 80 52q92 100 186 200q111 106 225 154q37 14 103 -35q23 -18 -12 -106q-16 -41 -60 -119q-6 -12 -33.5 12.5t-72.5 50.5q-37 10 -120 -59.5t-171 -185.5q-10 -14 -10 -33 q0 -47 102 -133q76 -55 154 -113q41 -31 59 -51q31 -29 31 -45q0 -35 -56 -35q-57 0 -159 102q-51 51 -103 105q-74 70 -114 78q-80 18 -197 -140q-35 -55 -109 -166q-8 -12 -20 -28q-63 -63 -113 -64q-20 0 -43.5 16.5t-23.5 34.5q0 43 159 191q59 55 119 109q84 86 88 124 q4 33 -67 101q-43 39 -138.5 109.5t-138.5 111.5q-37 35 -37 45z" />
<glyph unicode="&#xd8;" horiz-adv-x="1392" d="M-33 -244q0 78 137 346q-123 129 -122 308q0 213 170 471q135 207 329 374q176 154 217 129q23 -14 23 -34q0 -37 -103 -133q-178 -166 -219 -211q-303 -328 -303 -576q0 -117 70 -211q143 270 317 555q92 150 381 500l-47 67q-27 39 -135 127q-86 72 -86 111q0 51 49 51 q51 0 137 -71.5t162 -188.5q328 383 346 369q43 -33 43 -58q0 -29 -88 -114q-156 -150 -258 -267q123 -223 123 -456q0 -84 -16 -166q-49 -242 -300 -472.5t-456 -230.5q-74 0 -158 62q-33 -82 -90 -256q-25 -76 -51 -76q-18 0 -62 25q-10 6 -10 26zM227 150l17 -13 q43 -33 102 -33q129 0 296 138.5t288 349.5q80 137 80 280q0 162 -103 334q-174 -211 -336 -454q-211 -317 -344 -602z" />
<glyph unicode="&#xd9;" horiz-adv-x="1302" d="M0 995q0 272 45 464t111 179q63 -20 63 -55q0 -20 -29 -92q-35 -92 -51 -172q-29 -131 -28 -289q0 -76 6 -158q35 -426 135 -618q72 -137 158 -135q117 2 279.5 218t213.5 449q74 342 88 392q45 150 107 137q66 -14 65 -101q0 -53 -40 -212.5t-40 -235.5q0 -18 2 -37 q14 -115 23 -170q18 -98 43 -151q16 -37 63 -91q31 -37 25 -57q-12 -45 -49 -90q-39 -51 -74 -51q-33 0 -51 59q-10 33 -31 275q-16 168 -69 165q-31 -2 -103 -169q-90 -211 -166 -306q-129 -158 -301 -141q-201 18 -307 340q-88 268 -88 653zM344 2089q0 74 45 74 q68 0 84 -35q2 -6 8 -80q4 -55 80 -147q90 -109 189 -136q286 -78 282 -139l-4 -49q-4 -18 -27 -18q-14 0 -45 8q-14 4 -258 100q-172 68 -272 207q-82 115 -82 215z" />
<glyph unicode="&#xda;" horiz-adv-x="1302" d="M0 995q0 272 45 464t111 179q63 -20 63 -55q0 -20 -29 -92q-35 -92 -51 -172q-29 -131 -28 -289q0 -76 6 -158q35 -426 135 -618q72 -137 158 -135q117 2 279.5 218t213.5 449q74 342 88 392q45 150 107 137q66 -14 65 -101q0 -53 -40 -212.5t-40 -235.5q0 -18 2 -37 q14 -115 23 -170q18 -98 43 -151q16 -37 63 -91q31 -37 25 -57q-12 -45 -49 -90q-39 -51 -74 -51q-33 0 -51 59q-10 33 -31 275q-16 168 -69 165q-31 -2 -103 -169q-90 -211 -166 -306q-129 -158 -301 -141q-201 18 -307 340q-88 268 -88 653zM379 1665q0 -2 6 47 q8 61 307 80q102 6 211 92q92 74 109 127q10 33 22.5 64.5t52.5 31.5q16 0 39 -4q33 -8 33 -53q0 -92 -108 -203q-131 -131 -330 -164q-92 -20 -272 -45q-70 -4 -70 27z" />
<glyph unicode="&#xdb;" horiz-adv-x="1302" d="M0 995q0 272 45 464t111 179q63 -20 63 -55q0 -20 -29 -92q-35 -92 -51 -172q-29 -131 -28 -289q0 -76 6 -158q35 -426 135 -618q72 -137 158 -135q117 2 279.5 218t213.5 449q74 342 88 392q45 150 107 137q66 -14 65 -101q0 -53 -40 -212.5t-40 -235.5q0 -18 2 -37 q14 -115 23 -170q18 -98 43 -151q16 -37 63 -91q31 -37 25 -57q-12 -45 -49 -90q-39 -51 -74 -51q-33 0 -51 59q-10 33 -31 275q-16 168 -69 165q-31 -2 -103 -169q-90 -211 -166 -306q-129 -158 -301 -141q-201 18 -307 340q-88 268 -88 653zM322 1784q0 37 49 63 q20 10 123 27q94 14 122 39q55 39 109 80q70 49 74 65q4 29 8 56q8 37 45 40q98 8 98 -36q0 -2 -6 -76t-6 -121q0 -74 14 -96q88 -139 154 -172q43 -20 43 -74q0 -43 -47 -39q-82 8 -209 211q-27 61 -53.5 124.5t-67.5 55.5q-35 -6 -125 -69q-100 -70 -151 -88 q-35 -14 -72 -31q-55 -23 -70 -23q-33 0 -32 64z" />
<glyph unicode="&#xdc;" horiz-adv-x="1302" d="M0 995q0 272 45 464t111 179q63 -20 63 -55q0 -20 -29 -92q-35 -92 -51 -172q-29 -131 -28 -289q0 -76 6 -158q35 -426 135 -618q72 -137 158 -135q117 2 279.5 218t213.5 449q74 342 88 392q45 150 107 137q66 -14 65 -101q0 -53 -40 -212.5t-40 -235.5q0 -18 2 -37 q14 -115 23 -170q18 -98 43 -151q16 -37 63 -91q31 -37 25 -57q-12 -45 -49 -90q-39 -51 -74 -51q-33 0 -51 59q-10 33 -31 275q-16 168 -69 165q-31 -2 -103 -169q-90 -211 -166 -306q-129 -158 -301 -141q-201 18 -307 340q-88 268 -88 653zM397 1700v51q-2 61 82 61 q35 0 71 -19t36 -52q0 -35 -44 -70t-83 -35q-18 0 -29 11q-31 27 -33 53zM811 1610q2 27 2 53q-2 61 82 61q35 0 69.5 -19t34.5 -52q0 -37 -43 -71t-82 -34q-20 0 -30 11q-29 27 -33 51z" />
<glyph unicode="&#xdd;" horiz-adv-x="1153" d="M-29 1563q0 10 15.5 17t36.5 7q51 0 127 -78q96 -102 124 -118q78 -47 211 -105q143 -63 189 -63q8 0 12 2q18 10 63.5 143t69.5 158q121 113 172 112q29 0 53.5 -19.5t24.5 -45.5q0 -39 -35 -113q-41 -84 -155 -211q-106 -115 -111 -131q-10 -47 -8 -260q2 -240 22 -352 q10 -59 74 -252q55 -168 55 -217q0 -35 -20 -35q-68 -2 -86 29q-33 49 -80 282q-33 156 -66 314q-14 92 -16 305q0 33 11.5 101.5t11.5 86.5q0 23 -9 25q-92 27 -184 51q-174 51 -219 86q-283 213 -283 281zM264 1698q-6 63 283 141q98 27 188 133q76 92 80 148q6 74 8 80 q16 36 84 34q45 0 45 -73q0 -100 -82 -215q-100 -139 -272 -207q-86 -39 -256 -101q-31 -8 -47 -8q-23 0 -26 21.5t-5 46.5z" />
<glyph unicode="&#xdf;" horiz-adv-x="1048" d="M-37 -106q0 18 27 71q31 63 41 109q27 152 53 303q53 279 115 475q82 272 178 383q205 238 358 238q96 0 129 -107q8 -29 8 -61q0 -82 -58 -210t-58 -151t22 -26q51 -4 103 -9q35 -4 45 -41q10 -29 22 -59q14 -47 15 -92q0 -154 -177 -336q-365 -377 -442 -377 q-35 0 -41 45q-8 55 95.5 130t211.5 149q133 100 176 200q70 158 70 222q0 51 -57 67q-6 2 -113 8q-72 6 -72 35q0 6 2 12q41 92 82 185q70 160 70 231q0 53 -39 58q-117 12 -231 -134q-147 -186 -244 -596q-133 -565 -141 -596q-51 -186 -95 -186q-10 0 -22 8 q-33 23 -33 52z" />
<glyph unicode="&#xe0;" horiz-adv-x="1474" d="M-2 254q0 233 168 410q78 82 186 135q117 57 223 57q154 0 140 -106q-6 -20 -39 -27q-104 -6 -209 -12q-106 -16 -199 -86q-63 -47 -106 -152.5t-43 -200.5q0 -156 98 -155q104 0 373 262q74 74 209 207q96 94 114 94q41 4 52 -18q6 -12 59 -207q57 -213 238 -269 q43 -8 116 -24q27 -6 33 -8q14 -4 17.5 -16.5t3.5 -26.5q0 -92 -86 -93q-33 0 -74 17q-145 59 -213 143q-6 6 -123 207q-31 51 -80 61q-55 10 -129 -59q-45 -47 -145 -145q-283 -268 -408 -269q-33 0 -57 19q-119 90 -119 262zM291 1448q0 74 45 74q68 2 84 -35q2 -6 8 -80 q4 -55 80 -147q90 -106 188 -134q289 -78 283 -141q-2 -25 -5 -46t-24 -21q-16 0 -47 8q-16 4 -256 100q-172 70 -272 207q-84 115 -84 215z" />
<glyph unicode="&#xe1;" horiz-adv-x="1474" d="M-2 254q0 233 168 410q78 82 186 135q117 57 223 57q154 0 140 -106q-6 -20 -39 -27q-104 -6 -209 -12q-106 -16 -199 -86q-63 -47 -106 -152.5t-43 -200.5q0 -156 98 -155q104 0 373 262q74 74 209 207q96 94 114 94q41 4 52 -18q6 -12 59 -207q57 -213 238 -269 q43 -8 116 -24q27 -6 33 -8q14 -4 17.5 -16.5t3.5 -26.5q0 -92 -86 -93q-33 0 -74 17q-145 59 -213 143q-6 6 -123 207q-31 51 -80 61q-55 10 -129 -59q-45 -47 -145 -145q-283 -268 -408 -269q-33 0 -57 19q-119 90 -119 262zM360 1014q-6 61 283 141q98 27 188 133 q76 92 80 148q6 74 9 80q16 34 84 34q45 0 45 -71q0 -100 -82 -215q-100 -139 -273 -207q-86 -39 -258 -103q-31 -8 -47 -8q-20 0 -23.5 21.5t-5.5 46.5z" />
<glyph unicode="&#xe2;" horiz-adv-x="1476" d="M0 254q0 233 168 410q80 82 186 135q117 57 224 57q154 0 139 -106q-6 -23 -39 -27q-104 -6 -208.5 -16.5t-199.5 -81.5q-63 -47 -106 -152.5t-43 -200.5q0 -156 98 -155q104 0 373 262q74 74 209 207q96 94 114 94q43 4 54 -18q4 -8 57 -207q57 -213 238 -269 q43 -8 118 -24q27 -6 36 -9t12.5 -15.5t3.5 -28.5q0 -90 -86 -91q-33 0 -74 17q-145 59 -213 143q0 2 -121 207q-31 51 -82 61q-53 10 -129 -59q-45 -47 -145 -145q-285 -268 -408 -269q-33 0 -57 19q-119 90 -119 262zM236 963q0 29 34 61q18 16 108.5 54t113.5 69l86 102 q55 66 55 82q0 6 -3 24.5t-3 30.5q0 39 36.5 52.5t63.5 13.5q33 0 39 -25q12 -70 22 -139q23 -121 50 -145q121 -115 190 -129q25 -4 43.5 -27.5t18.5 -46.5q0 -31 -37 -37q-82 -12 -254 154q-14 14 -72 96q-39 55 -70 55q-33 0 -118 -94q-104 -115 -131 -133 q-12 -8 -82 -59q-33 -27 -47 -27q-16 0 -29.5 24.5t-13.5 43.5z" />
<glyph unicode="&#xe3;" horiz-adv-x="1476" d="M0 254q0 233 168 410q80 82 186 135q117 57 224 57q154 0 139 -106q-6 -23 -39 -27q-104 -6 -208.5 -16.5t-199.5 -81.5q-63 -47 -106 -152.5t-43 -200.5q0 -156 98 -155q104 0 373 262q74 74 209 207q96 94 114 94q43 4 54 -18q4 -8 57 -207q57 -213 238 -269 q43 -8 118 -24q27 -6 36 -9t12.5 -15.5t3.5 -28.5q0 -90 -86 -91q-33 0 -74 17q-145 59 -213 143q0 2 -121 207q-31 51 -82 61q-53 10 -129 -59q-45 -47 -145 -145q-285 -268 -408 -269q-33 0 -57 19q-119 90 -119 262zM219 1114q0 16 8 31q23 43 74 86q70 59 139 59 q20 0 41 -6q37 -10 105 -65q92 -78 184 -154q127 -94 213 -92q100 2 111 82q0 25 2 65q2 51 34 51q20 0 38 -26.5t18 -67.5q0 -86 -58.5 -135t-148.5 -47q-158 2 -328 158q-152 139 -192 135q-137 -14 -131 -68q0 -10 10 -33.5t10 -35.5q0 -29 -31 -29q-35 0 -66.5 29.5 t-31.5 62.5z" />
<glyph unicode="&#xe4;" horiz-adv-x="1474" d="M-2 254q0 233 168 410q78 82 186 135q117 57 223 57q154 0 140 -106q-6 -20 -39 -27q-104 -6 -209 -12q-106 -16 -199 -86q-63 -47 -106 -152.5t-43 -200.5q0 -156 98 -155q104 0 373 262q74 74 209 207q96 94 114 94q41 4 52 -18q6 -12 59 -207q57 -213 238 -269 q43 -8 116 -24q27 -6 33 -8q14 -4 17.5 -16.5t3.5 -26.5q0 -92 -86 -93q-33 0 -74 17q-145 59 -213 143q-6 6 -123 207q-31 51 -80 61q-55 10 -129 -59q-45 -47 -145 -145q-283 -268 -408 -269q-33 0 -57 19q-119 90 -119 262zM344 1135q-8 35 22.5 57t73.5 22q90 0 90 -61 q0 -39 -39.5 -79t-76.5 -40q-10 0 -19 4q-35 18 -41 44t-10 53zM768 1135q-8 35 22.5 57t73.5 22q90 0 90 -61q0 -39 -40 -79t-76 -40q-10 0 -19 4q-35 18 -41 44t-10 53z" />
<glyph unicode="&#xe5;" horiz-adv-x="1490" d="M0 254q0 233 168 410q80 82 186 135q117 57 224 57q154 0 139 -106q-6 -23 -39 -27q-104 -6 -208.5 -16.5t-199.5 -81.5q-63 -47 -106 -152.5t-43 -200.5q0 -156 98 -155q104 0 373 262q74 74 209 207q96 94 114 94q43 4 54 -18q4 -8 57 -207q57 -213 238 -269 q43 -8 118 -24q27 -6 36 -9t12.5 -15.5t3.5 -28.5q0 -90 -86 -91q-33 0 -74 17q-145 59 -213 143q0 2 -121 207q-31 51 -82 61q-53 10 -129 -59q-45 -47 -145 -145q-285 -268 -408 -269q-33 0 -57 19q-119 90 -119 262zM362 1241q-4 121 209 227l33 17q27 14 27 31v14 q-2 8 -2 12q-8 39 22 55q25 14 97 15q92 0 161 -27q87 -34 95 -100q4 -33 4 -64q0 -195 -142 -344q-113 -119 -198 -123q-76 -2 -183 84q-119 96 -123 203zM492 1262q0 -68 51 -129q57 -72 141 -70q76 2 152 133q70 123 69 225q1 54 -26 70q-39 27 -84 14q-31 -8 -31 -24 q16 -31 -12 -37q-6 -2 -35 -6q-154 -35 -221 -150q-4 -12 -4 -26z" />
<glyph unicode="&#xe6;" horiz-adv-x="1636" d="M0 164q0 160 188 280q160 100 297 101q82 0 164 -15.5t88 -15.5q14 0 23 8q41 39 41 49q0 6 -6 13q-27 49 -52 96q-49 86 -96 104l-190 35q-139 23 -140 66q0 51 93 51q74 0 188 -39q98 -35 143 -66q27 -18 86 -118q47 -84 86 -82q37 2 127 80q111 94 150 116 q78 43 149 43q125 0 125 -122q0 -96 -84 -199t-180 -109q-150 -10 -203 -30q-100 -37 -100 -138q0 -16 2 -32q18 -145 137 -146q55 0 183 37q43 12 151 53q74 29 103 29q33 0 45 -31q18 -45 -170.5 -117.5t-337.5 -72.5q-78 0 -119 24q-57 37 -80 88q-6 18 -14 74 q-4 31 -25 31q-8 0 -18.5 -3t-179 -134t-281.5 -164q-166 -45 -248 100q-45 80 -45 156zM145 178q0 -39 17 -72q47 -68 125 -67q84 0 196 80q90 66 168 155q74 85 68 105q-12 47 -172 47q-76 0 -166 -12q-106 -14 -171 -85t-65 -151zM1071 553q0 -10 4 -16q25 -37 55 -37 q37 0 140 65q76 47 76 103q-1 51 -46 69q-29 12 -129 -63.5t-100 -120.5z" />
<glyph unicode="&#xe7;" horiz-adv-x="770" d="M0 442q0 186 166 326q141 121 260 121q49 0 53 -33q6 -55 -22 -82q-16 -16 -74 -33q-66 -18 -98 -39q-55 -33 -101 -108q-49 -84 -49 -170q0 -49 17 -92q76 -203 229 -203q55 0 146 32t116 32q41 -1 47 -50q4 -35 -43 -55q-35 -14 -139 -35l-10 -2q10 -37 91 -69.5 t91 -79.5q20 -86 -173.5 -260t-303.5 -174q-41 0 -53 32q-8 23 -9 39q0 43 56 60q51 10 100 20q57 18 160 109q115 102 114 161q0 16 -10 29q-37 43 -162 26.5t-133 6.5q-6 14 -6 26t9.5 27.5t9.5 24.5q-160 29 -248 258q-31 80 -31 155z" />
<glyph unicode="&#xe8;" d="M-14 1278q0 49 34 55q18 4 35 4q43 0 55.5 -33.5t20.5 -68.5q14 -53 107 -131q104 -88 206 -98q299 -29 303.5 -89.5t4.5 -46.5q0 -33 -70 -26q-53 4 -139 24q-66 14 -131 31q-195 41 -322 174q-104 111 -104 205zM0 426q0 188 141 297q47 35 201 96q53 20 90 21 q90 0 135 -125q6 -16 6 -33q0 -100 -190 -229q-109 -66 -215 -129q-20 -16 -21 -50q0 -86 129 -161q37 -20 84 -21q66 0 168.5 47t116.5 47q12 0 14 -12q14 -74 -71.5 -124t-206.5 -50q-119 0 -207 49q-102 55 -137 162q-37 117 -37 215zM145 463q0 -39 15 -39q39 0 137 70 q57 41 100 96q55 67 45 110q-6 23 -32 23q-43 0 -166 -68q-98 -55 -99 -192z" />
<glyph unicode="&#xe9;" d="M0 426q0 188 141 297q47 35 201 96q53 20 90 21q90 0 135 -125q6 -16 6 -33q0 -100 -190 -229q-109 -66 -215 -129q-20 -16 -21 -50q0 -86 129 -161q37 -20 84 -21q66 0 168.5 47t116.5 47q12 0 14 -12q14 -74 -71.5 -124t-206.5 -50q-119 0 -207 49q-102 55 -137 162 q-37 117 -37 215zM20 887q2 0 3 53q2 61 296 111q100 16 199 112q86 84 96 140q12 72 17 77q20 35 88 27q39 -4 39 -61q0 -98 -96 -211q-117 -137 -304 -189q-88 -31 -266 -74q-23 -4 -37 -4q-31 0 -35 19zM145 463q0 -39 15 -39q39 0 137 70q57 41 100 96q55 67 45 110 q-6 23 -32 23q-43 0 -166 -68q-98 -55 -99 -192z" />
<glyph unicode="&#xea;" d="M-80 911q0 29 35 60q18 16 108.5 55t112.5 68q43 51 88 102q55 66 55 82q0 6 -3 25.5t-3 31.5q0 37 33 49q41 14 66 15q33 0 39 -25q12 -70 24 -139q23 -121 49 -145q125 -115 191 -129q23 -4 41 -28t18 -46q0 -31 -37 -37q-84 -12 -254 154q-14 14 -71 96q-39 55 -68 55 q-33 0 -121 -96q-104 -115 -131 -131q-14 -10 -82 -60q-33 -27 -47 -26q-12 0 -20 14q-23 35 -23 55zM0 426q0 188 141 297q47 35 201 96q53 20 90 21q90 0 135 -125q6 -16 6 -33q0 -100 -190 -229q-109 -66 -215 -129q-20 -16 -21 -50q0 -86 129 -161q37 -20 84 -21 q66 0 168.5 47t116.5 47q12 0 14 -12q14 -74 -71.5 -124t-206.5 -50q-119 0 -207 49q-102 55 -137 162q-37 117 -37 215zM145 463q0 -39 15 -39q39 0 137 70q57 41 100 96q55 67 45 110q-6 23 -32 23q-43 0 -166 -68q-98 -55 -99 -192z" />
<glyph unicode="&#xeb;" d="M0 426q0 188 141 297q47 35 201 96q53 20 90 21q90 0 135 -125q6 -16 6 -33q0 -100 -190 -229q-109 -66 -215 -129q-20 -16 -21 -50q0 -86 129 -161q37 -20 84 -21q66 0 168.5 47t116.5 47q12 0 14 -12q14 -74 -71.5 -124t-206.5 -50q-119 0 -207 49q-102 55 -137 162 q-37 117 -37 215zM84 1012q-8 35 22.5 57.5t73.5 22.5q88 -1 88 -62q0 -39 -39 -78t-75 -39q-10 0 -19 5q-33 18 -40 43.5t-11 50.5zM145 463q0 -39 15 -39q39 0 137 70q57 41 100 96q55 67 45 110q-6 23 -32 23q-43 0 -166 -68q-98 -55 -99 -192zM508 1012q-8 35 22.5 57.5 t73.5 22.5q88 -1 88 -62q0 -39 -39 -78t-75 -39q-10 0 -19 5q-33 18 -40 43.5t-11 50.5z" />
<glyph unicode="&#xec;" horiz-adv-x="444" d="M2 106q-2 10 10 39q23 45 37 162q8 145 17 291q18 139 106 125q45 -6 45 -49q0 -35 -37 -121q-41 -94 -47 -127q-4 -25 -4 -57q0 -55 16 -152q16 -109 19 -123q6 -94 -96 -94q-31 0 -44.5 37t-21.5 69zM12 1219q0 55 18.5 88.5t43.5 23.5q45 -18 45 -45q0 -12 -8.5 -36.5 t-8.5 -41.5q0 -53 23 -114q31 -78 80 -115q147 -113 147 -156q0 -10 -10 -28.5t-18 -18.5q-12 0 -37 19q-14 10 -142 133q-133 129 -133 291z" />
<glyph unicode="&#xed;" horiz-adv-x="462" d="M-29 887q-4 43 199 98q70 18 131 94q53 66 55 105q4 49 6 55q13 25 60 25q33 0 33 -52q0 -70 -60 -151q-70 -96 -190 -143q-59 -27 -180 -72q-23 -6 -33 -6q-16 0 -21 47zM20 106q-2 10 11 39q23 45 37 162q8 145 16 291q18 139 106 125q45 -6 46 -49q0 -35 -37 -121 q-41 -94 -47 -127q-4 -25 -5 -57q0 -55 17 -152q16 -109 18 -123q6 -94 -96 -94q-31 0 -44 37t-22 69z" />
<glyph unicode="&#xee;" horiz-adv-x="462" d="M-113 807q0 20 27 45q12 12 77.5 40t82.5 50q31 37 63 74q39 47 39 59l-4 25q-2 18 3 31.5t22 19.5q68 23 75 -6q8 -51 19 -101q16 -88 35 -106q88 -84 137 -94q43 -8 43 -53q0 -23 -27 -27q-55 -8 -182 113q-12 10 -53 69q-29 41 -49 41q-23 0 -86 -69q-78 -84 -97 -97 q-92 -63 -94 -63q-10 0 -20.5 18.5t-10.5 30.5zM20 106q-2 10 11 39q23 45 37 162q8 145 16 291q18 139 106 125q45 -6 46 -49q0 -35 -37 -121q-41 -94 -47 -127q-4 -25 -5 -57q0 -55 17 -152q16 -109 18 -123q6 -94 -96 -94q-31 0 -44 37t-22 69z" />
<glyph unicode="&#xef;" horiz-adv-x="452" d="M2 981q-8 35 22.5 58.5t73.5 23.5q90 -1 90 -62q0 -39 -39.5 -78.5t-76.5 -39.5q-10 0 -19 4q-35 18 -41 43.5t-10 50.5zM10 106q-2 10 10 39q23 45 37 162q8 145 19 291q16 139 106 125q43 -6 43 -49q0 -33 -37 -119q-41 -96 -47 -129q-4 -25 -4 -55q0 -55 17 -154 q18 -109 20 -123q6 -94 -96 -94q-33 0 -49 39q-8 35 -19 67zM281 989q-8 35 22.5 57.5t73.5 22.5q90 0 90 -61q0 -39 -40 -79t-77 -40q-10 0 -18 4q-35 18 -41 44t-10 52z" />
<glyph unicode="&#xf1;" horiz-adv-x="1220" d="M16 778q0 20 4 25q14 12 33 12q-2 0 76 -18q16 -4 57 -277.5t90 -279.5q33 -4 107 122q113 184 152 236q100 127 190 127q12 0 25 -2q78 -14 110 -264q41 -336 88 -443q14 -31 58 -39q8 -2 73 -2q78 -2 70 -63q-8 -63 -111 -64q-123 0 -188 66q-31 31 -76 356 q-43 301 -98 293q-74 -10 -182 -221q-88 -164 -107 -242q-8 -31 -60.5 -62.5t-86.5 -35.5q-55 -8 -144 332q-80 315 -80 444zM55 1067q0 16 8 33q25 43 74 86q68 59 137 59q59 0 148 -71l184 -156q127 -94 213 -92q100 2 111 84q0 25 2 65q2 49 33 49q20 0 38.5 -26.5 t18.5 -67.5q0 -86 -59.5 -134t-147.5 -46q-129 2 -244 88q-96 84 -194 168q-49 39 -82 35q-137 -14 -131 -66q0 -2 12 -45q6 -16 6 -26q0 -27 -28 -27q-35 0 -67 28.5t-32 61.5z" />
<glyph unicode="&#xf2;" horiz-adv-x="958" d="M0 367q-4 156 272 284q16 8 45 21q12 6 31 18q12 14 4 61.5t26 66t122 18.5q121 0 213 -35q115 -43 125 -123q4 -41 4 -80q0 -172 -92 -319q-74 -119 -193 -201q-98 -70 -160 -72q-98 -2 -237 107q-156 121 -160 254zM150 1393q0 72 45 71q68 0 84 -34q2 -6 8 -80 q4 -55 80 -148q90 -106 188 -133q287 -78 283 -141q-4 -47 -4 -49q-4 -16 -25 -17q-16 0 -47 8q-12 4 -258 101q-172 68 -273 207q-82 115 -81 215zM158 395q0 -90 67 -172q80 -94 195 -92q104 2 205 172q94 160 94 293q0 71 -37 96q-57 37 -117 21q-59 -16 -43.5 -44 t-13.5 -36q-12 -2 -47 -8q-199 -39 -299 -195q-4 -16 -4 -35z" />
<glyph unicode="&#xf3;" horiz-adv-x="958" d="M0 367q-4 156 272 284q16 8 45 21q12 6 31 18q12 14 4 61.5t26 66t122 18.5q121 0 213 -35q115 -43 125 -123q4 -41 4 -80q0 -172 -92 -319q-74 -119 -193 -201q-98 -70 -160 -72q-98 -2 -237 107q-156 121 -160 254zM92 909q-6 63 283 142q100 27 188 133q76 92 80 149 q6 74 8 80q16 35 84 35q45 0 45 -72q0 -102 -84 -217q-100 -139 -272 -207q-84 -39 -256 -100q-31 -8 -47 -8q-20 0 -23.5 20.5t-5.5 44.5zM158 395q0 -90 67 -172q80 -94 195 -92q104 2 205 172q94 160 94 293q0 71 -37 96q-57 37 -117 21q-59 -16 -43.5 -44t-13.5 -36 q-12 -2 -47 -8q-199 -39 -299 -195q-4 -16 -4 -35z" />
<glyph unicode="&#xf4;" horiz-adv-x="958" d="M0 367q-4 156 272 284q16 8 45 21q12 6 31 18q12 14 4 61.5t26 66t122 18.5q121 0 213 -35q115 -43 125 -123q4 -41 4 -80q0 -172 -92 -319q-74 -119 -193 -201q-98 -70 -160 -72q-98 -2 -237 107q-156 121 -160 254zM61 883q0 29 35 59q18 16 108.5 55t112.5 68 q43 51 89 102q55 66 55 82q0 6 -3 25.5t-3 32.5q0 37 32 49q41 14 66 14q33 0 39 -24l24 -140q23 -121 50 -145q121 -115 190 -129q23 -4 41 -27.5t18 -46.5q1 -31 -36 -37q-82 -12 -254 154q-14 14 -72 96q-39 55 -70 55t-118 -94q-106 -115 -132 -131q-16 -10 -81 -61 q-33 -25 -48 -25q-12 0 -20 12q-23 33 -23 56zM158 395q0 -90 67 -172q80 -94 195 -92q104 2 205 172q94 160 94 293q0 71 -37 96q-57 37 -117 21q-59 -16 -43.5 -44t-13.5 -36q-12 -2 -47 -8q-199 -39 -299 -195q-4 -16 -4 -35z" />
<glyph unicode="&#xf5;" horiz-adv-x="972" d="M0 367q-4 156 272 284q16 8 45 21q12 6 31 18q12 14 4 61.5t26 66t122 18.5q121 0 213 -35q115 -43 125 -123q4 -41 4 -80q0 -172 -92 -319q-74 -119 -193 -201q-98 -70 -160 -72q-98 -2 -237 107q-156 121 -160 254zM8 1077q0 14 8 31q23 43 74 86q68 59 137 59 q59 0 148 -71l184 -156q127 -94 213 -92q100 2 111 84q0 25 2 65q2 51 33 52q20 0 38.5 -27t18.5 -70q0 -86 -58.5 -134t-148.5 -46q-125 2 -242 88l-196 168q-47 39 -82 35q-137 -16 -131 -66q0 -12 12 -43q6 -16 6 -28q0 -27 -29 -27q-35 0 -66.5 28.5t-31.5 63.5z M158 395q0 -90 67 -172q80 -94 195 -92q104 2 205 172q94 160 94 293q0 71 -37 96q-57 37 -117 21q-59 -16 -43.5 -44t-13.5 -36q-12 -2 -47 -8q-199 -39 -299 -195q-4 -16 -4 -35z" />
<glyph unicode="&#xf6;" horiz-adv-x="958" d="M0 367q-4 156 272 284q16 8 45 21q12 6 31 18q12 14 4 61.5t26 66t122 18.5q121 0 213 -35q115 -43 125 -123q4 -41 4 -80q0 -172 -92 -319q-74 -119 -193 -201q-98 -70 -160 -72q-98 -2 -237 107q-156 121 -160 254zM158 395q0 -90 67 -172q80 -94 195 -92 q104 2 205 172q94 160 94 293q0 71 -37 96q-57 37 -117 21q-59 -16 -43.5 -44t-13.5 -36q-12 -2 -47 -8q-199 -39 -299 -195q-4 -16 -4 -35zM215 1030q-8 35 22.5 57.5t73.5 22.5q88 0 88 -61q0 -39 -40 -79t-74 -40q-10 0 -19 4q-35 18 -41 44t-10 52zM639 1030 q-8 35 22.5 57.5t73.5 22.5q90 0 90 -61q0 -37 -41 -78t-75 -41q-10 0 -19 4q-35 18 -41 44t-10 52z" />
<glyph unicode="&#xf7;" horiz-adv-x="778" d="M14 680q-8 47 47 70q47 18 242 53q125 29 315 59q32 0 50 -55q14 -45 -115 -66q-109 -16 -215 -30q-27 -6 -121 -43q-74 -31 -123 -31q-72 0 -80 43zM231 412q-8 33 21 55t70 22q88 0 88 -59q0 -37 -39 -76t-72 -39q-10 0 -18 4q-33 18 -39 43t-11 50zM348 1090 q-8 33 20.5 54t71.5 21q86 0 86 -59q0 -35 -37.5 -73t-70.5 -38q-10 0 -19 4q-33 18 -40 42t-11 49z" />
<glyph unicode="&#xf8;" horiz-adv-x="1056" d="M0 360q-4 123 156 224q92 49 184 96q12 8 12 27q0 8 -3 25.5t-3 27.5q0 33 31 49t121 16q121 0 211 -32q168 174 233 174q16 0 32.5 -13.5t16.5 -27.5q0 -16 -49 -58q-111 -88 -149 -123q47 -43 47 -155q0 -172 -92 -320q-74 -119 -191 -198q-98 -70 -160 -72 q-66 -2 -176 61q-53 -86 -100 -196q-25 -57 -47 -58q-59 0 -60 48q0 70 138 256q-147 119 -152 249zM166 387q0 -88 67 -168l158 199q132 169 230 280q-41 6 -74 -9t-25 -27q16 -35 -16 -46q-68 -16 -135 -32q-131 -51 -201 -164q-4 -14 -4 -33zM291 170q59 -39 127 -37 q102 2 198 170q92 156 93 285q-1 40 -13 65q-119 -119 -229 -252q-98 -119 -176 -231z" />
<glyph unicode="&#xf9;" horiz-adv-x="1208" d="M0 666q0 78 49 82q102 8 115 -91q2 -90 2 -178q31 -307 139 -307q47 0 141.5 101.5t139.5 209.5q18 43 55 191q20 84 55 86q76 6 88 -101q0 -78 2 -155q6 -47 83 -195.5t96 -165.5q8 -8 59 -16q43 -8 54.5 -27.5t11.5 -50.5q0 -98 -125 -90q-63 4 -121 127 q-16 35 -84 223q-43 121 -70 119q-53 -2 -115 -113q-104 -182 -120 -204q-84 -111 -189 -115q-47 -2 -100 108q-31 66 -90 244q-76 227 -76 318zM63 1337q0 70 43 70q59 -2 70 -33q2 -4 6 -69q2 -49 66 -131q74 -96 160 -123q249 -76 243 -131q-2 -23 -5 -41.5t-21 -18.5 q-14 0 -41 8q-6 2 -224 97q-145 63 -227 184q-70 100 -70 188z" />
<glyph unicode="&#xfa;" horiz-adv-x="1208" d="M0 666q0 78 49 82q102 8 115 -91q2 -90 2 -178q31 -307 139 -307q47 0 141.5 101.5t139.5 209.5q18 43 55 191q20 84 55 86q76 6 88 -101q0 -78 2 -155q6 -47 83 -195.5t96 -165.5q8 -8 59 -16q43 -8 54.5 -27.5t11.5 -50.5q0 -98 -125 -90q-63 4 -121 127 q-16 35 -84 223q-43 121 -70 119q-53 -2 -115 -113q-104 -182 -120 -204q-84 -111 -189 -115q-47 -2 -100 108q-31 66 -90 244q-76 227 -76 318zM190 905q-4 55 248 123q86 23 164 117q66 80 70 129q6 68 8 69q15 33 74 31q41 0 41 -63q0 -88 -74 -189q-88 -121 -238 -180 q-76 -35 -225 -90q-27 -6 -41 -6q-18 0 -22 14q-2 23 -5 45z" />
<glyph unicode="&#xfb;" horiz-adv-x="1179" d="M-29 668q0 76 49 80q102 8 115 -91q2 -90 2 -178q31 -307 139 -307q47 0 141.5 101.5t139.5 209.5q18 43 55 191q20 84 56 86q76 6 88 -101v-155q6 -45 84 -199q76 -145 96 -162q8 -8 59 -16q43 -8 54.5 -27.5t11.5 -50.5q0 -98 -125 -90q-63 4 -121 127q-16 35 -84 223 q-43 121 -69 119q-53 -2 -115 -113q-104 -182 -121 -204q-84 -111 -190 -115q-47 -2 -99 108q-33 70 -90 244q-76 229 -76 320zM-27 909q0 29 35 60q18 16 113 55q88 37 110 68l86 102q55 66 56 82q0 6 -3 25.5t-3 31.5q0 37 35.5 50.5t60.5 13.5q35 0 41 -25 q12 -70 24 -139q25 -123 50 -146q125 -115 190 -129q23 -4 41 -26.5t18 -46.5q1 -31 -36 -37q-82 -12 -252 153q-14 14 -72 97q-39 55 -70 55q-33 0 -118 -94q-104 -115 -132 -133q-8 -6 -81 -60q-33 -27 -50 -26q-12 0 -20 14q-23 35 -23 55z" />
<glyph unicode="&#xfc;" horiz-adv-x="1208" d="M0 666q0 78 49 82q102 8 115 -91q2 -90 2 -178q31 -307 139 -307q47 0 141.5 101.5t139.5 209.5q18 43 55 191q20 84 55 86q76 6 88 -101q0 -78 2 -155q6 -47 83 -195.5t96 -165.5q8 -8 59 -16q43 -8 54.5 -27.5t11.5 -50.5q0 -98 -125 -90q-63 4 -121 127 q-16 35 -84 223q-43 121 -70 119q-53 -2 -115 -113q-104 -182 -120 -204q-84 -111 -189 -115q-47 -2 -100 108q-31 66 -90 244q-76 227 -76 318zM113 1012q-8 35 22.5 57.5t73.5 22.5q90 -1 90 -60q0 -39 -40 -79t-77 -40q-10 0 -18 5q-33 18 -40 43.5t-11 50.5zM537 1012 q-8 35 22.5 57.5t73.5 22.5q90 -1 90 -60q0 -39 -40 -79t-77 -40q-10 0 -18 5q-33 18 -40 43.5t-11 50.5z" />
<glyph unicode="&#xfd;" horiz-adv-x="1026" d="M-766 -1315q0 37 11.5 52.5t64.5 29.5q68 6 137 10q100 14 207 95q145 109 328 358q489 668 483 778q-4 80 -37 105q-43 23 -86 43q-70 41 -133 137q-154 229 -156 233q-82 131 -82 193q0 41 37 55q27 6 47 6q66 0 105 -114q68 -190 129 -283q51 -78 141 -152 q78 -61 109 -69q29 -6 75 84q47 84 84 205l58 196q35 88 100 88q13 0 29 -4q37 -8 37 -67q0 -160 -248 -601.5t-580 -875.5q-233 -305 -450 -453q-172 -117 -299 -116q-111 0 -111 67zM272 911q-4 55 248 123q86 23 164 117q66 80 70 129q6 66 8 70q15 30 74 30q39 0 38 -63 q0 -88 -71 -189q-88 -121 -240 -180q-76 -35 -223 -88q-29 -8 -41 -8q-20 0 -22.5 18.5t-4.5 40.5z" />
<glyph unicode="&#xfe;" horiz-adv-x="860" d="M-10 193q0 135 10 169q33 98 72 259q4 47 73 258q82 248 160 403q104 209 174 193q8 -2 8 -19q0 -59 -106.5 -348t-106.5 -315q0 -10 9 -5q70 53 198 54q76 0 119 -19q18 -8 70 -129q57 -133 57 -200q0 -43 -11 -100.5t-11 -76.5q0 -25 8 -45q4 -8 45 -73q33 -51 33 -80 q-1 -44 -64 -58q-16 -4 -31 -4q-121 0 -121 179q0 43 9.5 130t9.5 130q0 209 -86 231q-29 8 -57 8q-100 0 -181 -80q-102 -102 -143 -323q-14 -76 -14 -199q0 -346 96 -897q12 -74 53 -201q35 -106 35 -141q0 -57 -61 -70q-113 -23 -187 517q-59 432 -59 852z" />
<glyph unicode="&#xff;" horiz-adv-x="1026" d="M-766 -1315q0 37 11.5 52.5t64.5 29.5q68 6 137 10q100 14 207 95q145 109 328 358q489 668 483 778q-4 80 -37 105q-43 23 -86 43q-70 41 -133 137q-154 229 -156 233q-82 131 -82 193q0 41 37 55q27 6 47 6q66 0 105 -114q68 -190 129 -283q51 -78 141 -152 q78 -61 109 -69q29 -6 75 84q47 84 84 205l58 196q35 88 100 88q13 0 29 -4q37 -8 37 -67q0 -160 -248 -601.5t-580 -875.5q-233 -305 -450 -453q-172 -117 -299 -116q-111 0 -111 67zM174 1032q-8 35 22.5 57.5t75.5 22.5q88 0 88 -61q0 -39 -39.5 -79t-74.5 -40 q-10 0 -19 4q-35 18 -42 44t-11 52zM600 1032q-8 35 22.5 57.5t73.5 22.5q88 0 88 -61q0 -39 -39.5 -79t-74.5 -40q-10 0 -19 4q-35 18 -41 44t-10 52z" />
<glyph unicode="&#x178;" horiz-adv-x="1114" d="M-16 1616q0 14 13 17t26 3q53 0 112 -88q84 -123 105 -139q74 -66 196 -145q137 -88 162 -78q18 6 84 122.5t92 135.5q121 80 170 80q15 0 25 -6q49 -31 49 -58q0 -39 -52.5 -111.5t-183.5 -172.5q-119 -90 -125 -105q-16 -43 -49 -244q-37 -227 -37 -335 q0 -57 22.5 -214t22.5 -210q0 -72 -28 -68q-61 8 -76 41q-20 53 -27 278q-2 80 -6 183q-4 82 -4 116q0 94 35 297q6 31 31 103q23 66 22 84q0 10 -4 12q-82 41 -164 80q-156 78 -192 117q-219 236 -219 305zM303 1749v45q-4 57 74 57q29 0 59.5 -16t30.5 -45 q0 -31 -38 -61.5t-73 -30.5q-14 0 -24 8q-27 20 -29 43zM635 1696v45q-4 55 74 55q29 0 59.5 -15t30.5 -44q0 -31 -38 -61.5t-73 -30.5q-14 0 -22 6q-27 23 -31 45z" />
<glyph unicode="&#x2c6;" horiz-adv-x="944" d="M8 1657q0 29 35 59q18 16 113 56q88 37 110 67q43 51 86 103q55 66 56 81q0 6 -3.5 25.5t-3.5 32.5q0 37 33 49q41 14 66 14q33 0 39 -24l24 -140q25 -121 49 -145q121 -115 191 -129q23 -4 41 -26.5t18 -47.5q0 -31 -37 -37q-82 -12 -252 154q-14 14 -71 96 q-39 55 -70 56q-33 0 -121 -97q-104 -115 -129 -131q-2 -2 -82 -59q-33 -27 -49 -27q-12 0 -20 15q-23 35 -23 55z" />
<glyph unicode="&#x2dc;" horiz-adv-x="1015" d="M0 1841q0 16 8 33q23 41 74 84q70 59 137 59q59 0 148 -71q92 -78 184 -154q127 -94 213 -92q102 2 110 82q0 25 3 65q2 51 32 51q20 0 39 -26.5t19 -67.5q0 -86 -59.5 -135t-147.5 -47q-125 2 -242 88l-196 168q-51 41 -82 37q-133 -14 -134 -68q6 -14 15 -43 q6 -16 6 -28q0 -27 -31 -27q-33 0 -64.5 29.5t-31.5 62.5z" />
<glyph unicode="&#x2000;" horiz-adv-x="1165" />
<glyph unicode="&#x2001;" horiz-adv-x="2331" />
<glyph unicode="&#x2002;" horiz-adv-x="1165" />
<glyph unicode="&#x2003;" horiz-adv-x="2331" />
<glyph unicode="&#x2004;" horiz-adv-x="777" />
<glyph unicode="&#x2005;" horiz-adv-x="582" />
<glyph unicode="&#x2006;" horiz-adv-x="388" />
<glyph unicode="&#x2007;" horiz-adv-x="388" />
<glyph unicode="&#x2008;" horiz-adv-x="291" />
<glyph unicode="&#x2009;" horiz-adv-x="466" />
<glyph unicode="&#x200a;" horiz-adv-x="129" />
<glyph unicode="&#x2010;" horiz-adv-x="770" d="M0 643q0 49 59 62q49 10 246 10q10 0 172 4q111 4 147 -2.5t42 -61.5q6 -45 -117 -45q-35 0 -119 4q-76 6 -106 4q-74 -16 -218 -34q-45 0 -75.5 17t-30.5 42z" />
<glyph unicode="&#x2011;" horiz-adv-x="770" d="M0 643q0 49 59 62q49 10 246 10q10 0 172 4q111 4 147 -2.5t42 -61.5q6 -45 -117 -45q-35 0 -119 4q-76 6 -106 4q-74 -16 -218 -34q-45 0 -75.5 17t-30.5 42z" />
<glyph unicode="&#x2012;" horiz-adv-x="770" d="M0 643q0 49 59 62q49 10 246 10q10 0 172 4q111 4 147 -2.5t42 -61.5q6 -45 -117 -45q-35 0 -119 4q-76 6 -106 4q-74 -16 -218 -34q-45 0 -75.5 17t-30.5 42z" />
<glyph unicode="&#x2013;" horiz-adv-x="1079" d="M0 690q2 35 30.5 48.5t106.5 13.5q53 0 170 -7q289 -2 641 -14q33 -6 37 -65q4 -39 -203 -39q-98 0 -268 10q-178 10 -192 10q-76 -12 -218 -22q-47 2 -76.5 21.5t-27.5 43.5z" />
<glyph unicode="&#x2014;" horiz-adv-x="1546" d="M0 690q2 35 30.5 48.5t106.5 13.5q53 0 170 -7q532 -2 1127 -16q30 -6 34 -65q2 -39 -362 -39q-186 0 -483 12q-150 4 -301 10q-76 -12 -218 -22q-47 2 -76.5 21.5t-27.5 43.5z" />
<glyph unicode="&#x2018;" horiz-adv-x="333" d="M0 1169q0 96 49 189q25 53 82 151q18 25 37 25q18 0 61 -43q20 -20 -16 -74q-25 -33 -76 -102q-37 -53 -37 -141q0 -61 15 -84q12 -14 28 -43q8 -31 -28 -62q-8 -6 -19 -6q-47 0 -73 74q-23 57 -23 116z" />
<glyph unicode="&#x2019;" horiz-adv-x="307" d="M35 948q-23 16 12 74q23 33 70 104q31 49 30 125q0 74 -20 101q-12 12 -31 43q-10 31 27 63q8 8 20 8q49 0 80 -80q25 -63 25 -122q0 -88 -41 -174q-20 -53 -74 -156q-16 -27 -39 -27q-18 0 -59 41z" />
<glyph unicode="&#x201a;" horiz-adv-x="196" d="M-18 -346q20 29 55 92q39 86 39 186q0 55 -13 93q-10 23 -34 63q-4 6 -9 18q-12 43 43 80q10 8 21 9q47 0 74 -134q16 -79 26 -200q4 -55 -59 -185q-51 -104 -98 -104q-16 0 -31 14q-33 35 -14 68z" />
<glyph unicode="&#x201c;" horiz-adv-x="483" d="M-127 997q-2 27 16.5 54.5t32.5 62.5q27 100 107 289q39 70 96 70q23 0 46.5 -15.5t23.5 -38.5q0 -29 -82 -61q-39 -14 -107 -232q-4 -14 -10 -127q-4 -82 -49 -90q-12 -2 -21 -2q-49 0 -51 60q0 10 -2 30zM92 969q4 25 64 227q23 80 69 143q59 82 129 82q49 0 49 -37 q0 -20 -43 -61q-84 -80 -106 -143q-4 -10 -33 -164q-23 -121 -78 -127q-37 -4 -47 17.5t-4 62.5z" />
<glyph unicode="&#x201d;" horiz-adv-x="577" d="M0 1022q0 18 39 61q78 86 96 150q6 20 23 166q12 123 67 133q35 8 47.5 -13.5t8.5 -62.5q-2 -29 -48 -231q-18 -82 -59 -150q-57 -90 -127 -90q-47 0 -47 37zM211 1001q0 27 76 66q39 20 92 238q2 12 0 127q-2 80 45 92q14 4 27 4q43 0 47 -55q2 -11 4 -31q4 -23 -10 -51 q-12 -20 -31 -68q-4 -12 -37 -149q-23 -92 -49 -148q-37 -76 -96 -76q-23 0 -45.5 15.5t-22.5 35.5z" />
<glyph unicode="&#x201e;" horiz-adv-x="411" d="M-150 -334q0 20 39 64q78 86 97 147q6 20 22 166q12 123 68 133q37 8 49 -13.5t8 -62.5q-2 -10 -49 -231q-18 -82 -59 -150q-57 -90 -127 -90q-47 0 -48 37zM61 -356q0 29 76 67q39 20 92 238q4 20 2 129q-2 78 43 90q14 4 27 4q43 0 47 -55q2 -11 4 -29q4 -25 -10 -53 q-12 -20 -31 -68q-4 -12 -37 -149q-23 -92 -49 -148q-37 -76 -96 -76q-23 0 -45.5 15.5t-22.5 34.5z" />
<glyph unicode="&#x2022;" horiz-adv-x="448" d="M0 846q0 57 57.5 93t132.5 36q95 0 150 -51q29 -27 29 -68q0 -74 -79 -152.5t-149 -78.5q-20 0 -37 8q-68 37 -80 86t-20 100q-4 14 -4 27z" />
<glyph unicode="&#x2026;" horiz-adv-x="1533" d="M2 98q-8 35 21.5 58.5t72.5 23.5q92 0 92 -63q0 -37 -39.5 -77t-74.5 -40q-12 0 -21 4q-35 18 -41 44t-10 50zM588 98q-8 35 21.5 57.5t74.5 22.5q90 0 90 -61q0 -39 -39 -78t-76 -39q-10 0 -18 4q-35 20 -42 45t-11 49zM1161 98q-8 35 21.5 57.5t72.5 22.5q91 0 91 -61 q0 -39 -39 -78t-76 -39q-10 0 -19 4q-35 20 -41 45t-10 49z" />
<glyph unicode="&#x202f;" horiz-adv-x="466" />
<glyph unicode="&#x2039;" horiz-adv-x="784" d="M0 825q0 23 10 52q8 23 45 41t74 38.5t145 102.5q152 121 162 127q109 80 146 80q33 0 53 -39q8 -16 8 -29q0 -27 -61 -53q-90 -39 -131 -70q-82 -59 -162 -120.5t-92 -102.5q-20 -70 254 -178q98 -39 161 -105q55 -59 56 -106q0 -41 -43 -41q-20 0 -50 31q-59 63 -67 71 q-53 33 -146 90q-68 41 -163 76q-119 39 -140 49q-59 29 -59 86z" />
<glyph unicode="&#x203a;" horiz-adv-x="794" d="M0 1214q0 43 45 43q23 0 51 -32q61 -66 70 -74q20 -20 76 -49q70 -39 77 -43q70 -45 173 -80q123 -43 143 -53q63 -31 63 -92q0 -23 -10 -52q-8 -20 -47 -40.5l-78 -41t-151 -108.5q-164 -125 -170 -131q-115 -84 -152 -84q-35 0 -55 41q-8 18 -8 31q0 29 61 57 q98 43 137 72q96 70 191 139q100 78 106 100q12 57 -297 178q-102 41 -168 109q-57 61 -57 110z" />
<glyph unicode="&#x205f;" horiz-adv-x="582" />
<glyph unicode="&#x2122;" horiz-adv-x="1802" d="M0 1425q0 61 193 131q49 18 223 46q190 27 297 26q88 0 90 -20q6 -47 4 -54q-4 -10 -41 -14q-29 2 -57 2q-23 0 -31 -33q-14 -59 -14 -219q0 -158 26 -143q29 16 111 98q78 76 99.5 111t41.5 71q25 45 47 43q66 -6 58 -200q-4 -121 40 -121q8 0 17.5 7t35 73.5t42.5 83.5 q78 82 98 82q8 0 16 -6q14 -12 76 -141.5t84 -145.5q10 -8 47 -45q21 -23 37 -19q23 6 39 6q37 0 37 -24q0 -25 -31 -47.5t-61 -11.5q-74 23 -159 178t-91 155q-20 2 -77.5 -119.5t-117.5 -113.5q-53 6 -73 78q-4 14 -19 121q-8 59 -33 51q-16 -6 -53 -74q-45 -84 -78 -121 q-55 -61 -121 -59q-113 4 -112 102q0 14 2 34.5t2 24t5 92.5t5 142q0 92 -14 98q-27 12 -92 9q-72 -6 -78 -29q-8 -33 -17 -131q-6 -109 0 -158q4 -27 17.5 -79t13.5 -64t-8 -13q-43 6 -49 9q-29 12 -33 55q-16 162 -10 211q4 39 20 108q14 59 15 70q0 8 -4 8 q-25 0 -101 -26.5t-103.5 -53t-51.5 -55.5q-35 -37 -60 -37q-16 0 -32.5 16.5t-16.5 34.5z" />
<glyph unicode="&#x25fc;" horiz-adv-x="870" d="M0 0v870h870v-870h-870z" />
</font>
</defs>
</svg>
